<?xml version="1.0" encoding="UTF-8"?>
<svg xmlns="http://www.w3.org/2000/svg" xmlns:xlink="http://www.w3.org/1999/xlink" width="103px" height="150px" viewBox="0 0 103 149" version="1.1">
<g id="surface1">
<path style=" stroke:none;fill-rule:nonzero;fill:rgb(0%,0%,0%);fill-opacity:1;" d="M 45.546875 53.746094 C 45.300781 53.738281 44.953125 54.25 44.453125 55.296875 C 44.027344 56.183594 43.542969 57.320312 43.371094 57.816406 C 43.171875 58.398438 42.980469 58.667969 42.828125 58.578125 C 42.699219 58.5 42.285156 58.226562 41.90625 57.972656 C 41.113281 57.4375 40.671875 57.378906 40.671875 57.8125 C 40.671875 57.980469 40.757812 58.113281 40.867188 58.113281 C 41.183594 58.113281 42.492188 59.339844 42.492188 59.636719 C 42.492188 59.839844 42.585938 60.753906 41.429688 60.796875 C 40.503906 60.886719 39.976562 60.84375 38.878906 61.265625 C 37.957031 61.613281 37.546875 62.421875 37.433594 64.128906 C 37.300781 66.050781 36.898438 66.433594 36.054688 65.417969 C 35.648438 64.933594 35.34375 64.761719 34.875 64.765625 C 34.078125 64.765625 33.996094 65.03125 33.992188 67.625 C 33.992188 69.511719 33.972656 69.589844 33.433594 70.015625 C 32.957031 70.390625 32.710938 70.4375 31.714844 70.335938 C 30.636719 70.222656 30.550781 70.246094 30.550781 70.628906 C 30.550781 71.34375 30.960938 71.847656 31.875 72.25 C 32.917969 72.707031 32.890625 72.980469 31.738281 73.625 C 30.902344 74.09375 30.859375 74.246094 31.277344 75.328125 C 31.359375 75.539062 31.292969 75.652344 31.082031 75.652344 C 30.910156 75.652344 30.453125 75.921875 30.074219 76.253906 C 29.386719 76.855469 29.382812 76.867188 29.386719 78.625 C 29.394531 80.945312 29.148438 81.464844 26.941406 83.796875 C 25.609375 85.207031 24.796875 86.304688 23.878906 87.929688 C 22.804688 89.832031 22.5 90.214844 21.679688 90.691406 C 19.8125 91.773438 16.835938 95.027344 15.867188 97.039062 C 15.6875 97.414062 15.195312 97.96875 14.773438 98.269531 C 12.882812 99.617188 10.46875 102.996094 8.667969 106.816406 C 7.996094 108.238281 7.257812 109.4375 6.566406 110.21875 C 2.964844 114.316406 0.316406 120.046875 0.0546875 124.332031 C -0.0546875 126.136719 -0.0546875 126.148438 0.578125 126.894531 C 2.007812 128.582031 4.160156 129.1875 10 129.546875 C 13.304688 129.75 14.40625 129.886719 14.945312 130.164062 C 16.757812 131.105469 21.113281 132.355469 23.835938 132.71875 C 25.910156 132.992188 31.121094 132.835938 32.167969 132.460938 C 32.785156 132.242188 43.859375 132 59.800781 131.855469 C 60.691406 131.847656 61.808594 131.945312 62.277344 132.074219 C 63.257812 132.339844 63.976562 131.980469 64.613281 130.90625 C 64.832031 130.535156 65.242188 130.257812 65.816406 130.09375 C 66.3125 129.945312 67.042969 129.492188 67.519531 129.03125 C 68.820312 127.777344 69.171875 127.945312 69.921875 130.175781 C 70.808594 132.816406 71.589844 133.976562 73.058594 134.84375 C 73.570312 135.144531 73.667969 135.328125 73.667969 135.992188 C 73.667969 136.425781 73.769531 137.335938 73.894531 138.011719 C 74.144531 139.390625 73.800781 140.421875 72.316406 142.742188 C 71.398438 144.171875 71.296875 144.753906 71.84375 145.449219 C 72.53125 146.316406 74.003906 146.074219 74.835938 144.953125 C 75.875 143.558594 76.230469 143.816406 75.910156 145.726562 C 75.679688 147.132812 75.8125 148.136719 76.316406 148.738281 C 76.445312 148.894531 76.789062 149.019531 77.082031 149.015625 C 78.332031 149 79.335938 147.863281 80.253906 145.433594 C 81.109375 143.167969 81.527344 143.058594 81.886719 145.019531 C 82.320312 147.34375 82.953125 148.015625 84.722656 148.015625 C 86.324219 148.015625 86.011719 144.871094 84.011719 140.859375 C 83.027344 138.882812 82.839844 138.257812 82.363281 135.417969 C 82.234375 134.640625 81.828125 133.324219 81.460938 132.492188 C 80.773438 130.929688 80.25 129.097656 80.4375 128.910156 C 80.496094 128.851562 81.925781 128.726562 83.613281 128.636719 C 85.304688 128.542969 86.714844 128.4375 86.753906 128.398438 C 86.796875 128.359375 86.929688 127.789062 87.050781 127.132812 C 87.257812 126.027344 87.132812 117.507812 86.90625 117.136719 C 86.824219 117.007812 85.773438 116.773438 83.921875 116.46875 L 83.144531 116.34375 L 83.28125 113.988281 C 83.355469 112.691406 83.457031 111.488281 83.503906 111.3125 C 83.589844 111 86.609375 110.519531 88.480469 110.519531 L 89.222656 110.523438 L 89.496094 107.984375 L 92.664062 107.640625 C 94.410156 107.453125 96.585938 107.242188 97.5 107.167969 C 99.394531 107.019531 99.402344 107.015625 100.269531 104.886719 C 101.085938 102.890625 101.742188 99.40625 102.191406 94.699219 C 102.949219 86.816406 103.054688 84.894531 102.761719 84.40625 C 102.433594 83.851562 101.238281 82.8125 99.378906 81.46875 C 97.914062 80.410156 97.234375 79.976562 94.621094 78.429688 C 92 76.882812 86.464844 74.394531 81.738281 72.636719 C 80.582031 72.207031 80.429688 72.023438 80.03125 70.613281 C 79.953125 70.335938 79.53125 69.175781 79.089844 68.035156 L 78.289062 65.960938 L 76.476562 65.054688 C 72.179688 62.90625 69.96875 63.164062 66.714844 66.1875 C 65.886719 66.957031 65.113281 67.589844 65 67.589844 C 64.242188 67.792969 63.6875 68.167969 63.011719 68.8125 L 62.9375 67.402344 C 62.894531 66.511719 62.886719 66.40625 62.335938 66.179688 C 61.859375 65.984375 61.738281 65.8125 61.761719 65.398438 C 61.871094 63.71875 61.835938 63.683594 59.851562 63.457031 L 58.6875 63.328125 L 58.6875 61.628906 C 58.617188 59.925781 58.070312 60.742188 57.40625 60.613281 C 56.460938 60.425781 56.179688 59.296875 55.929688 58.519531 C 55.644531 57.644531 54.78125 57.4375 52.984375 57.804688 C 52.335938 57.9375 51.804688 57.980469 51.804688 57.898438 C 51.804688 57.554688 49.824219 57.105469 48.316406 57.105469 L 46.722656 57.105469 L 46.40625 56.351562 C 46.230469 55.933594 46.03125 55.1875 45.957031 54.691406 C 45.871094 54.070312 45.742188 53.75 45.546875 53.746094 Z M 64.980469 118.480469 C 64.980469 118.480469 65.054688 119.121094 64.929688 119.574219 C 63.234375 119.359375 58.519531 118.640625 53.746094 117.566406 C 48.96875 116.488281 45.3125 115.992188 45.378906 115.457031 C 50.167969 116.929688 53.128906 114.765625 56.128906 112.773438 C 56.722656 117.921875 60.730469 117.230469 64.980469 118.480469 Z M 64.980469 118.480469 "/>
<path style=" stroke:none;fill-rule:nonzero;fill:rgb(100%,87.843137%,74.117647%);fill-opacity:1;" d="M 78.703125 146.5 C 80.210938 143.660156 80.367188 142.386719 79.820312 137.484375 C 79.734375 136.722656 79.765625 136.324219 79.90625 136.324219 C 80.183594 136.324219 80.25 136.589844 80.675781 139.308594 C 80.945312 141.042969 81.132812 141.699219 81.472656 142.058594 C 82.183594 142.824219 82.753906 144.195312 82.902344 145.496094 C 82.980469 146.160156 83.140625 146.769531 83.265625 146.851562 C 83.664062 147.117188 84.609375 147.019531 84.730469 146.695312 C 84.929688 146.1875 84.414062 144.039062 83.699219 142.398438 C 83.019531 140.835938 82.785156 140.144531 81.46875 135.820312 C 79.175781 128.277344 77.011719 125.230469 72.726562 123.503906 C 71.742188 123.105469 70.464844 122.734375 69.890625 122.671875 C 68.863281 122.566406 68.84375 122.574219 68.332031 123.347656 C 68.046875 123.777344 67.589844 124.640625 67.3125 125.265625 L 66.808594 126.402344 L 67.734375 126.753906 C 69.992188 127.609375 70.222656 127.84375 70.945312 129.964844 C 71.734375 132.277344 72.5625 133.488281 74.023438 134.453125 C 74.304688 134.640625 74.476562 134.960938 74.472656 135.289062 C 74.472656 135.582031 74.625 136.699219 74.8125 137.773438 L 75.152344 139.726562 L 74.320312 140.796875 C 73.328125 142.082031 72.457031 143.871094 72.457031 144.640625 L 72.453125 145.199219 L 73.203125 144.886719 C 74.375 144.398438 75.171875 143.695312 76.226562 142.222656 L 77.203125 140.859375 L 77.316406 138.496094 C 77.433594 136.140625 77.546875 135.671875 77.921875 136.042969 C 78.300781 136.421875 78.429688 141.113281 78.074219 141.515625 C 77.496094 142.160156 77.070312 143.863281 76.957031 145.964844 L 76.847656 148.046875 L 77.402344 147.980469 C 77.859375 147.925781 78.089844 147.664062 78.703125 146.5 Z M 78.703125 146.5 "/>
<path style=" stroke:none;fill-rule:nonzero;fill:rgb(1.176471%,44.705882%,56.470588%);fill-opacity:1;" d="M 28.726562 131.589844 C 31.058594 131.472656 33.355469 131.203125 33.492188 131.03125 C 33.632812 130.5 33.695312 130.085938 33.796875 129.515625 L 31.339844 128.195312 C 30.351562 127.628906 27.167969 126.351562 25.992188 125.984375 C 23.445312 125.195312 22.160156 125.398438 19.054688 127.09375 C 17.757812 127.796875 17.859375 127.285156 19.160156 126.539062 C 20.136719 125.972656 20.976562 125.300781 21.847656 124.601562 L 20.582031 123.972656 C 19.328125 123.351562 16.582031 120.929688 16.582031 120.445312 C 16.582031 120.316406 17.605469 120.875 18.859375 121.691406 C 20.179688 122.554688 21.984375 123.515625 23.160156 123.980469 C 24.273438 124.425781 26.277344 125.21875 27.613281 125.746094 C 28.949219 126.273438 30.957031 127.140625 32.078125 127.671875 C 34.539062 128.839844 35.476562 129.003906 40.570312 129.164062 C 44.167969 129.382812 48.136719 129.542969 51.226562 129.503906 L 56.214844 129.433594 L 56.355469 127.941406 C 56.476562 126.644531 56.707031 126.019531 56.96875 126.28125 C 57.011719 126.320312 57.0625 126.808594 57.082031 127.359375 C 57.144531 129.132812 57.398438 129.792969 58.167969 130.15625 C 58.785156 130.449219 60.597656 130.882812 61.199219 130.882812 C 61.328125 130.882812 61.59375 130.09375 61.792969 129.136719 C 62.246094 126.941406 62.722656 125.535156 63.992188 122.648438 C 64.542969 121.394531 64.964844 120.34375 64.929688 120.320312 C 64.890625 120.292969 63.3125 120.027344 61.421875 119.726562 C 55.925781 118.855469 54.945312 118.65625 50.265625 117.480469 C 44.808594 116.113281 44.914062 116.117188 44.117188 117.269531 C 43.324219 118.414062 42.328125 120.507812 42.167969 121.355469 C 42.089844 121.753906 41.921875 122.011719 41.734375 122.011719 C 41.207031 122.011719 41.570312 120.765625 42.785156 118.390625 C 44.335938 115.355469 44.277344 114.324219 42.613281 115.347656 C 41.554688 116 39.863281 118.828125 39.859375 119.945312 C 39.859375 120.394531 39.390625 120.578125 39.164062 120.21875 C 38.984375 119.929688 39.984375 117.207031 40.566406 116.398438 C 42.082031 114.292969 42.492188 113.691406 42.492188 113.574219 C 42.492188 113.503906 41.742188 112.992188 40.824219 112.441406 C 36.15625 109.636719 33.042969 106.851562 32.148438 105.960938 C 32.0625 105.875 31.339844 105.257812 30.449219 104.640625 C 25.273438 101.074219 22.609375 100.832031 18.675781 103.566406 C 17.046875 104.699219 17.027344 104.34375 18.625 102.796875 C 19.910156 101.550781 19.898438 101.519531 18.351562 101.980469 C 17.925781 102.105469 17.890625 101.789062 18.285156 101.394531 C 18.675781 101.007812 20.851562 100.59375 22.394531 100.613281 C 25.183594 100.652344 30.796875 103.316406 33.351562 105.820312 C 34.171875 106.625 35.015625 107.339844 35.3125 107.660156 C 35.609375 107.980469 35.84375 108.203125 36.128906 108.308594 C 37.027344 108.652344 37.125 108.527344 36.492188 107.851562 C 36.152344 107.492188 35.621094 106.75 35.308594 106.207031 C 33.765625 103.507812 29.710938 100.773438 25.84375 99.824219 C 25.3125 99.695312 24.878906 99.511719 24.878906 99.414062 C 24.878906 99.171875 26.628906 99.1875 27.515625 99.433594 C 27.910156 99.542969 28.855469 100.042969 29.621094 100.542969 C 30.386719 101.042969 31.089844 101.453125 31.1875 101.453125 C 31.28125 101.453125 31.359375 100.703125 31.363281 99.789062 C 31.367188 98.242188 31.484375 97.382812 31.847656 96.261719 C 31.960938 95.910156 31.925781 95.835938 31.691406 95.925781 C 31.285156 96.082031 30.550781 95.667969 30.550781 95.28125 C 30.550781 95.113281 30.425781 94.847656 30.273438 94.699219 C 29.867188 94.292969 29.699219 92.582031 29.925781 91.132812 C 30.257812 89.023438 30.222656 87.929688 29.769531 86.132812 C 29.53125 85.191406 29.335938 84.214844 29.335938 83.964844 C 29.335938 83.429688 29.125 83.402344 28.292969 83.832031 L 27.675781 84.148438 L 27.769531 87.507812 C 27.824219 89.355469 27.933594 91.074219 28.015625 91.324219 C 28.140625 91.695312 28.089844 91.777344 27.757812 91.777344 C 27.332031 91.777344 27.203125 91.269531 26.800781 88.046875 C 26.535156 85.921875 26.464844 85.847656 25.519531 86.640625 C 24.945312 87.121094 24.074219 89.015625 23.773438 90.425781 C 23.707031 90.734375 23.496094 91.039062 23.304688 91.101562 C 20.640625 91.972656 18.21875 94.210938 16.78125 97.136719 C 16.4375 97.839844 15.808594 98.566406 14.789062 99.433594 C 12.492188 101.386719 10.570312 104.335938 9.46875 107.601562 C 9.320312 108.042969 8.804688 108.859375 8.324219 109.414062 C 5.628906 112.535156 2.859375 117.296875 1.9375 120.398438 C 1.152344 123.320312 1.117188 123.910156 0.773438 126.402344 C 4.929688 127.925781 8.695312 128.351562 12.164062 128.652344 C 13.933594 128.804688 14.332031 128.917969 16.3125 129.863281 C 18.445312 130.878906 19.007812 131.054688 21.535156 131.5 C 22.199219 131.617188 22.761719 131.726562 22.785156 131.75 C 22.847656 131.8125 25.816406 131.734375 28.726562 131.589844 Z M 28.726562 131.589844 "/>
<path style=" stroke:none;fill-rule:nonzero;fill:rgb(0%,0%,0%);fill-opacity:1;" d="M 58.617188 129.101562 C 57.914062 128.328125 58.332031 126.847656 59.25 126.851562 C 60.484375 126.859375 60.710938 127.03125 60.710938 127.96875 C 60.710938 129.289062 59.421875 129.988281 58.617188 129.101562 Z M 58.617188 129.101562 "/>
<path style=" stroke:none;fill-rule:nonzero;fill:rgb(43.137255%,43.137255%,43.137255%);fill-opacity:1;" d="M 59.78125 128.546875 C 60.050781 127.84375 59.917969 127.425781 59.449219 127.492188 C 58.988281 127.554688 58.765625 128.050781 58.96875 128.574219 C 59.117188 128.960938 59.625 128.945312 59.78125 128.546875 Z M 59.78125 128.546875 "/>
<path style=" stroke:none;fill-rule:nonzero;fill:rgb(0%,0%,0%);fill-opacity:1;" d="M 35.386719 124.007812 C 34.246094 122.789062 34.710938 121.195312 37.34375 117.269531 C 38.46875 115.59375 39.761719 114.1875 39.980469 114.402344 C 40.089844 114.515625 38.96875 116.328125 38.636719 116.570312 C 38.269531 116.839844 36.371094 119.886719 36.109375 120.621094 C 35.554688 122.1875 35.75 123.824219 36.492188 123.828125 C 37.074219 123.832031 37.515625 124.132812 37.34375 124.410156 C 37.058594 124.871094 35.992188 124.652344 35.386719 124.007812 Z M 35.386719 124.007812 "/>
<path style=" stroke:none;fill-rule:nonzero;fill:rgb(34.901961%,34.901961%,34.901961%);fill-opacity:1;" d="M 55.78125 130.699219 L 56.359375 130.542969 L 55.851562 130.378906 C 55.371094 130.222656 53.890625 130.21875 48.464844 130.363281 C 47.066406 130.402344 45.261719 130.308594 44.214844 130.152344 C 43.011719 129.96875 41 129.890625 38.292969 129.921875 C 34.035156 129.976562 33.777344 130.035156 34.542969 130.796875 C 34.867188 131.121094 35.589844 131.132812 45.046875 131 C 50.636719 130.921875 55.464844 130.785156 55.78125 130.699219 Z M 55.78125 130.699219 "/>
<path style=" stroke:none;fill-rule:nonzero;fill:rgb(84.313725%,90.980392%,90.980392%);fill-opacity:1;" d="M 64.679688 128.804688 C 64.699219 128.785156 65.007812 128.175781 65.371094 127.453125 C 65.730469 126.734375 66.1875 125.917969 66.378906 125.640625 C 66.574219 125.363281 67.164062 124.320312 67.691406 123.324219 L 68.648438 121.511719 L 68.171875 121.378906 C 67.035156 121.0625 66.019531 121.1875 65.613281 121.699219 C 64.890625 122.617188 63.777344 125.121094 63.355469 126.78125 C 62.761719 129.128906 62.765625 129.144531 63.792969 128.984375 C 64.261719 128.90625 64.660156 128.828125 64.679688 128.804688 Z M 64.679688 128.804688 "/>
<path style=" stroke:none;fill-rule:nonzero;fill:rgb(84.313725%,90.980392%,90.980392%);fill-opacity:1;" d="M 66.894531 128.574219 C 67.617188 127.851562 67.554688 127.414062 66.734375 127.492188 C 66.132812 127.550781 66.070312 127.621094 66.015625 128.3125 C 65.941406 129.199219 66.191406 129.273438 66.894531 128.574219 Z M 66.894531 128.574219 "/>
<path style=" stroke:none;fill-rule:nonzero;fill:rgb(43.529412%,43.529412%,43.529412%);fill-opacity:1;" d="M 85.808594 127.316406 C 85.859375 127.269531 85.9375 125.183594 85.984375 122.675781 L 86.066406 118.121094 L 85.585938 118.257812 C 85.117188 118.390625 79.941406 118.621094 71.289062 118.898438 C 67.074219 119.03125 66.988281 119.042969 66.992188 119.464844 C 66.996094 120.144531 67.226562 120.339844 68.203125 120.492188 C 68.816406 120.585938 69.253906 120.800781 69.546875 121.148438 C 69.800781 121.449219 70.699219 121.9375 71.710938 122.328125 C 73.917969 123.179688 75.832031 124.445312 77.589844 126.210938 L 78.980469 127.613281 L 82.347656 127.507812 C 84.199219 127.449219 85.753906 127.363281 85.808594 127.316406 Z M 85.808594 127.316406 "/>
<path style=" stroke:none;fill-rule:nonzero;fill:rgb(34.901961%,34.901961%,34.901961%);fill-opacity:1;" d="M 73.464844 118.171875 C 77.53125 118.054688 81.628906 117.84375 82.574219 117.703125 L 84.296875 117.445312 L 83.484375 117.230469 C 79.371094 116.148438 69.058594 116.457031 67.578125 117.710938 C 67.402344 117.859375 67.039062 117.988281 66.769531 118 C 66.5 118.011719 66.050781 118.09375 65.773438 118.183594 C 65.054688 118.410156 65.070312 118.410156 73.464844 118.171875 Z M 73.464844 118.171875 "/>
<path style=" stroke:none;fill-rule:nonzero;fill:rgb(43.137255%,43.137255%,43.137255%);fill-opacity:1;" d="M 65.820312 116.871094 C 68.28125 116.554688 68.8125 115.0625 70.039062 105.082031 C 70.417969 102.011719 71.167969 96.191406 72.128906 88.910156 C 72.523438 85.9375 72.589844 84.871094 72.441406 83.871094 C 72.34375 83.175781 72.257812 82.527344 72.253906 82.429688 C 72.246094 82.023438 70.117188 82.570312 68.550781 83.382812 C 65.160156 85.140625 63.289062 85.203125 62.609375 83.582031 C 62.171875 82.542969 62.375 82.25 64.105469 81.429688 C 66 80.53125 66.222656 80.367188 66.652344 79.542969 C 67.746094 77.4375 69.179688 75.777344 70.480469 75.121094 C 71.730469 74.492188 72.351562 73.511719 72.640625 71.71875 C 72.765625 70.945312 72.914062 70.074219 72.972656 69.785156 C 73.066406 69.316406 73.003906 69.242188 72.414062 69.128906 C 72.046875 69.0625 71.289062 68.90625 70.734375 68.785156 C 69.25 68.464844 64.878906 68.527344 64.195312 68.875 C 62.25 69.878906 61.539062 72.5625 60.128906 84.21875 C 59.792969 86.988281 59.367188 90.480469 59.183594 91.976562 C 58.996094 93.476562 58.769531 95.46875 58.679688 96.414062 C 58.585938 97.355469 58.421875 98.851562 58.308594 99.738281 C 58.199219 100.625 58.054688 101.851562 57.988281 102.460938 C 57.925781 103.070312 57.765625 104.339844 57.636719 105.28125 C 57.507812 106.222656 57.394531 108.492188 57.386719 110.320312 C 57.371094 114.027344 57.496094 114.503906 58.738281 115.425781 C 59.734375 116.167969 63.460938 117.234375 64.457031 117.0625 C 64.679688 117.027344 65.292969 116.9375 65.820312 116.871094 Z M 65.820312 116.871094 "/>
<path style=" stroke:none;fill-rule:nonzero;fill:rgb(27.45098%,27.45098%,27.45098%);fill-opacity:1;" d="M 75.792969 115.972656 C 81.527344 115.683594 81.675781 115.65625 81.929688 114.78125 C 82.046875 114.378906 82.203125 113.4375 82.28125 112.691406 C 82.410156 111.414062 82.394531 111.328125 82.011719 111.328125 C 81.082031 111.328125 71.363281 112.460938 70.503906 112.667969 C 70.175781 112.746094 70.046875 112.972656 69.957031 113.613281 C 69.890625 114.074219 69.777344 114.839844 69.703125 115.308594 L 69.566406 116.167969 L 70.859375 116.160156 C 71.566406 116.15625 73.789062 116.070312 75.792969 115.972656 Z M 75.792969 115.972656 "/>
<path style=" stroke:none;fill-rule:nonzero;fill:rgb(100%,87.843137%,74.117647%);fill-opacity:1;" d="M 46.871094 66.527344 C 46.65625 66.5625 46.324219 67.066406 45.847656 68.019531 C 45.25 69.207031 45.125 69.675781 45.125 70.714844 C 45.125 72.949219 44.351562 72.871094 43.984375 70.601562 C 43.835938 69.664062 43.816406 69.65625 42.855469 70.308594 C 42.445312 70.585938 41.917969 70.8125 41.6875 70.8125 C 40.96875 70.8125 39.839844 71.386719 38.953125 72.199219 C 38.257812 72.839844 37.757812 73.210938 36.867188 73.75 C 36.835938 73.769531 36.941406 74.136719 37.101562 74.566406 C 37.265625 74.996094 37.445312 75.820312 37.503906 76.402344 C 37.605469 77.390625 37.578125 77.476562 37.015625 77.875 C 35.71875 78.796875 35.335938 79.863281 35.1875 82.996094 C 35.054688 85.835938 34.941406 86.492188 33.808594 91.171875 C 33.472656 92.558594 33.015625 94.460938 32.792969 95.40625 C 32.570312 96.347656 32.28125 97.535156 32.152344 98.039062 C 31.839844 99.246094 32.324219 101.78125 33.066406 102.84375 C 33.597656 103.597656 34.75 104.589844 35.484375 105.332031 C 36.21875 106.070312 37.191406 107.296875 37.367188 107.296875 C 37.425781 107.296875 37.742188 107.105469 38.074219 106.867188 C 38.683594 106.4375 39.347656 106.425781 41.125 106.816406 C 41.882812 106.984375 41.871094 106.480469 41.097656 105.835938 C 40.609375 105.425781 40.210938 105.324219 38.71875 105.21875 C 37.734375 105.148438 36.621094 105.03125 36.246094 104.957031 C 35.320312 104.285156 35.179688 103.8125 35.128906 102.632812 C 35.105469 102.167969 35.085938 101.988281 35.691406 101.382812 C 36.621094 100.457031 37.347656 100.332031 40.144531 100.613281 C 41.378906 100.738281 43.644531 100.949219 45.175781 101.085938 C 46.902344 101.242188 47.957031 101.417969 47.957031 101.554688 C 47.957031 101.675781 48.21875 102.132812 48.535156 102.570312 C 49.550781 103.96875 49.972656 105.992188 49.222656 105.847656 C 48.992188 105.804688 48.703125 105.308594 48.382812 104.398438 L 47.894531 103.015625 L 46.164062 103.152344 C 45.210938 103.230469 44.34375 103.3125 44.234375 103.332031 C 44.125 103.351562 44.003906 103.21875 43.960938 103.039062 C 43.882812 102.6875 45.113281 102.277344 46.378906 102.238281 C 48.25 102.179688 43.40625 101.617188 40.773438 101.589844 C 38.097656 101.558594 37.640625 101.601562 36.925781 101.957031 C 36.191406 102.320312 36.121094 102.421875 36.171875 103.054688 C 36.257812 104.09375 36.710938 104.476562 37.855469 104.476562 C 38.390625 104.476562 38.882812 104.386719 38.949219 104.273438 C 39.410156 103.535156 41.476562 104.738281 42.492188 106.335938 C 43.21875 107.472656 44.226562 108.253906 45.578125 108.726562 C 45.996094 108.871094 46.339844 109.121094 46.339844 109.277344 C 46.339844 109.632812 45 109.46875 44.101562 109.003906 C 43.785156 108.84375 43.261719 108.707031 42.9375 108.707031 C 42.601562 108.707031 42.191406 108.53125 41.96875 108.285156 C 41.109375 107.339844 39.546875 106.933594 38.617188 107.414062 C 38.164062 107.644531 38.042969 107.816406 38.152344 108.066406 C 38.234375 108.253906 38.402344 108.707031 38.523438 109.074219 C 38.703125 109.609375 39.074219 109.941406 40.339844 110.6875 C 41.882812 111.601562 43.707031 113.316406 43.707031 113.851562 C 43.707031 114.238281 45.042969 114.390625 46.441406 114.160156 C 47.46875 113.992188 47.75 113.847656 48.277344 113.230469 C 48.769531 112.65625 49.152344 112.445312 50.089844 112.226562 C 50.746094 112.074219 51.320312 111.988281 51.371094 112.039062 C 51.527344 112.195312 50.933594 112.761719 50.199219 113.152344 C 49.121094 113.726562 48.808594 114.019531 48.664062 114.597656 C 48.53125 115.117188 48.539062 115.121094 49.324219 114.945312 C 49.757812 114.847656 50.859375 114.488281 51.769531 114.140625 C 53.050781 113.652344 53.726562 113.234375 54.789062 112.277344 L 56.15625 111.046875 L 56.394531 109.121094 C 56.523438 108.0625 56.734375 106.152344 56.863281 104.878906 C 56.992188 103.605469 57.222656 101.515625 57.378906 100.242188 C 57.53125 98.96875 57.808594 96.5625 57.992188 94.902344 C 58.175781 93.238281 58.484375 90.5625 58.679688 88.953125 C 58.980469 86.488281 58.992188 85.980469 58.757812 85.714844 C 58.609375 85.539062 58.484375 85.078125 58.484375 84.6875 C 58.484375 84.191406 58.371094 83.921875 58.101562 83.796875 C 57.730469 83.617188 57.734375 83.558594 58.199219 81.699219 C 58.460938 80.644531 58.863281 78.875 59.09375 77.765625 L 59.511719 75.75 L 59.066406 75.390625 C 58.738281 75.125 58.582031 75.09375 58.472656 75.269531 C 58.367188 75.4375 58.15625 75.335938 57.78125 74.933594 L 57.246094 74.355469 C 56.5625 74.671875 55.816406 75.304688 55.097656 75.367188 C 55.027344 75.300781 55.207031 74.679688 55.496094 73.988281 C 56.085938 72.554688 56.078125 72.492188 55.304688 72.792969 C 54.992188 72.914062 54.46875 73.039062 54.132812 73.070312 C 53.375 73.148438 53.363281 72.546875 54.109375 71.554688 C 54.902344 70.5 54.945312 70.082031 54.292969 69.855469 C 53.980469 69.746094 53.277344 69.375 52.726562 69.027344 C 51.484375 68.242188 51.3125 68.242188 50.988281 69.015625 C 50.765625 69.550781 50.652344 69.621094 50.203125 69.507812 C 49 69.214844 48.933594 69.25 48.539062 70.394531 C 48.121094 71.609375 47.726562 72.125 46.882812 72.558594 C 45.96875 73.03125 45.867188 72.789062 46.582031 71.859375 C 47.242188 71 47.25 70.972656 47.25 68.789062 C 47.25 67.222656 47.152344 66.484375 46.871094 66.527344 Z M 46.871094 66.527344 "/>
<path style=" stroke:none;fill-rule:nonzero;fill:rgb(0%,0%,0%);fill-opacity:1;" d="M 48.566406 109.875 C 48.566406 109.660156 48.871094 109.535156 49.609375 109.449219 C 50.914062 109.292969 51.542969 108.746094 51.707031 107.621094 C 51.777344 107.167969 51.863281 106.613281 51.902344 106.390625 C 51.945312 106.167969 51.984375 105.785156 51.992188 105.535156 C 52 105.265625 52.136719 105.082031 52.320312 105.082031 C 52.585938 105.082031 52.613281 105.3125 52.496094 106.640625 C 52.285156 109.15625 51.714844 109.851562 49.71875 110.058594 C 48.777344 110.15625 48.566406 110.121094 48.566406 109.875 Z M 48.566406 109.875 "/>
<path style=" stroke:none;fill-rule:nonzero;fill:rgb(0%,0%,0%);fill-opacity:1;" d="M 54.820312 104.941406 C 54.636719 103.5 55.117188 99.007812 55.890625 94.953125 C 56.269531 92.980469 56.40625 92.582031 56.707031 92.582031 C 56.90625 92.582031 57.066406 92.605469 57.066406 92.632812 C 57.0625 92.660156 56.886719 93.242188 56.671875 93.925781 C 56.152344 95.570312 55.605469 99.28125 55.332031 103.019531 C 55.253906 104.046875 55.113281 104.9375 55.015625 104.996094 C 54.921875 105.054688 54.832031 105.03125 54.820312 104.941406 Z M 54.820312 104.941406 "/>
<path style=" stroke:none;fill-rule:nonzero;fill:rgb(0%,0%,0%);fill-opacity:1;" d="M 54.136719 101 C 54.285156 99.289062 54.351562 99.035156 54.632812 99.035156 C 54.871094 99.035156 54.898438 99.855469 54.710938 101.402344 C 54.625 102.121094 54.492188 102.460938 54.292969 102.460938 C 54.0625 102.460938 54.03125 102.1875 54.136719 101 Z M 54.136719 101 "/>
<path style=" stroke:none;fill-rule:nonzero;fill:rgb(0%,0%,0%);fill-opacity:1;" d="M 36.078125 96.324219 C 36.144531 95.59375 36.605469 93.863281 37.132812 92.34375 C 37.742188 90.589844 38.074219 89.351562 38.175781 88.765625 C 38.269531 88.242188 38.527344 87.554688 38.636719 87.183594 C 38.792969 86.558594 38.253906 86.617188 37.628906 86.164062 C 36.394531 85.648438 36.4375 85.304688 37.710938 85.667969 C 38.101562 85.777344 38.855469 86.652344 39.109375 86.414062 C 39.335938 86.203125 38.347656 85.316406 38.164062 84.964844 C 37.332031 83.332031 37.890625 83.308594 38.808594 84.863281 C 39.28125 85.667969 39.417969 85.910156 39.890625 85.816406 C 40.1875 85.757812 40.816406 85.375 41.242188 85.167969 C 42.019531 84.671875 44.117188 83.988281 44.457031 83.128906 C 43.496094 83.054688 42.023438 83.035156 41.179688 83.023438 C 39.855469 83.011719 39.550781 82.949219 39.5 82.679688 C 39.40625 82.191406 39.898438 82.085938 42.933594 81.957031 C 44.355469 81.894531 45.453125 82.003906 45.453125 82.003906 C 46.109375 80.292969 46.023438 79.132812 45.957031 77.207031 L 45.1875 77.335938 C 44.761719 77.40625 43.5625 77.734375 42.519531 78.066406 C 39.804688 78.9375 39.253906 78.851562 39.253906 77.5625 C 39.253906 77.015625 39.414062 76.835938 40.519531 76.121094 C 42.550781 74.8125 43.144531 74.488281 44.113281 74.167969 C 45.609375 73.675781 45.859375 73.691406 46.527344 74.328125 C 47.28125 75.046875 47.347656 75.757812 46.679688 75.925781 C 46.21875 76.039062 46.210938 76.082031 46.386719 77.410156 C 46.929688 81.601562 45.746094 83.796875 41.90625 85.71875 C 39.648438 86.847656 39.257812 87.214844 39.109375 88.335938 L 38.996094 89.15625 L 39.621094 89.03125 C 40.378906 88.882812 40.953125 89.449219 41.824219 91.210938 C 42.136719 91.84375 42.503906 92.363281 42.703125 92.652344 C 42.898438 92.941406 44.234375 93.390625 45.269531 93.386719 C 46.300781 93.382812 46.679688 93.222656 47.832031 92.3125 C 48.785156 91.554688 50.179688 91.222656 50.511719 91.671875 C 50.707031 91.9375 50.835938 91.949219 51.273438 91.75 C 51.960938 91.441406 51.96875 90.78125 51.304688 89.285156 C 49.574219 85.394531 49.273438 82.726562 50.269531 80.1875 C 51.101562 78.074219 52.042969 76.457031 52.449219 76.457031 C 53.097656 76.457031 56.1875 80.679688 56.796875 82.390625 C 57.128906 83.328125 56.960938 83.550781 55.660156 83.921875 C 54.972656 84.117188 54.910156 84.089844 54.199219 83.308594 C 53.789062 82.855469 53.105469 81.8125 52.679688 80.984375 C 52.136719 79.933594 51.628906 79.226562 51.425781 79.457031 C 50.386719 80.660156 50.398438 82.429688 50.550781 83.425781 L 51.835938 83.785156 C 54.007812 84.394531 54.53125 84.625 54.601562 84.980469 C 54.691406 85.453125 53.726562 85.441406 51.933594 84.945312 L 50.554688 84.566406 C 50.988281 85.773438 51.28125 86.976562 52.042969 88.117188 C 52.191406 88.273438 52.859375 88.148438 53.351562 88.148438 C 54.183594 88.148438 54.484375 88.375 54.03125 88.652344 C 53.835938 88.773438 52.234375 88.796875 52.308594 89.152344 C 52.410156 89.640625 53.589844 89.171875 54.234375 89.15625 C 55.164062 89.15625 54.441406 89.921875 53.339844 90.097656 C 52.941406 90.164062 52.613281 90.253906 52.613281 90.300781 C 52.613281 90.34375 52.746094 91.035156 52.902344 91.835938 C 53.453125 94.597656 53.488281 95 53.167969 95 C 52.96875 95 52.785156 94.59375 52.609375 93.777344 C 52.375 92.675781 52.308594 92.566406 51.925781 92.679688 C 51.691406 92.753906 50.863281 92.863281 50.085938 92.929688 C 48.871094 93.027344 48.558594 93.136719 47.898438 93.699219 C 47.164062 94.324219 46.40625 94.597656 45.425781 94.597656 C 44.875 94.597656 44.558594 94.945312 44.402344 95.726562 C 44.289062 96.292969 44.3125 96.3125 45.058594 96.3125 C 45.9375 96.3125 46.183594 96.867188 45.355469 96.984375 C 44.144531 97.15625 43.910156 96.914062 43.910156 95.503906 C 43.910156 94.539062 43.835938 94.195312 43.636719 94.195312 C 42.855469 94.195312 41.722656 93 41.167969 91.589844 C 41.167969 91.589844 40.839844 90.578125 40.503906 90.191406 C 39.820312 89.394531 39.105469 89.441406 38.476562 90.164062 C 38.117188 90.582031 37.777344 91.726562 37.777344 91.726562 C 37.167969 93.511719 36.71875 95.277344 36.527344 96.664062 C 36.320312 98.160156 35.933594 97.867188 36.078125 96.324219 Z M 36.078125 96.324219 "/>
<path style=" stroke:none;fill-rule:nonzero;fill:rgb(69.019608%,34.901961%,0%);fill-opacity:1;" d="M 55.9375 82.734375 C 55.996094 82.640625 55.585938 81.894531 55.027344 81.074219 C 54.46875 80.253906 53.726562 79.152344 53.382812 78.625 C 53.039062 78.097656 52.621094 77.667969 52.457031 77.667969 C 51.695312 77.667969 52.859375 80.804688 54.136719 82.195312 C 54.769531 82.878906 55.675781 83.152344 55.9375 82.734375 Z M 55.9375 82.734375 "/>
<path style=" stroke:none;fill-rule:nonzero;fill:rgb(69.019608%,34.901961%,0%);fill-opacity:1;" d="M 44.820312 76.453125 C 45.15625 76.25 45.601562 75.789062 45.8125 75.433594 L 46.195312 74.78125 L 45.589844 74.902344 C 44.285156 75.164062 40.449219 76.929688 40.5625 77.21875 C 40.621094 77.371094 40.671875 77.617188 40.671875 77.765625 C 40.671875 78.070312 43.789062 77.085938 44.820312 76.453125 Z M 44.820312 76.453125 "/>
<path style=" stroke:none;fill-rule:nonzero;fill:rgb(34.509804%,34.509804%,34.509804%);fill-opacity:1;" d="M 76.8125 111.128906 C 89.28125 109.75 88.445312 109.925781 88.445312 108.671875 L 88.445312 108.105469 L 81.582031 108.105469 L 81.371094 107.347656 C 81.253906 106.933594 81.160156 106.4375 81.160156 106.25 C 81.15625 105.683594 80.773438 105.632812 80.636719 106.179688 C 80.4375 106.964844 79.945312 106.828125 79.945312 105.988281 C 79.945312 105.519531 79.847656 105.28125 79.660156 105.28125 C 79.308594 105.28125 79.132812 105.71875 79.132812 106.609375 C 79.132812 107.085938 79.039062 107.296875 78.832031 107.296875 C 78.628906 107.296875 78.527344 107.097656 78.527344 106.691406 C 78.527344 105.886719 78.164062 105.914062 78.082031 106.726562 C 77.976562 107.820312 77.457031 107.710938 77.542969 106.617188 C 77.644531 105.359375 77.429688 105.4375 77.195312 106.742188 C 77.070312 107.449219 76.902344 107.820312 76.683594 107.859375 C 76.40625 107.910156 76.382812 107.78125 76.519531 106.953125 C 76.761719 105.5 76.75 105.449219 76.25 105.519531 C 75.984375 105.558594 75.773438 105.75 75.734375 105.988281 C 75.449219 107.820312 75.234375 108.507812 74.945312 108.507812 C 74.640625 108.507812 74.675781 107.378906 75.015625 106.214844 C 75.085938 105.984375 75.046875 105.886719 74.917969 105.964844 C 74.804688 106.035156 74.652344 106.386719 74.578125 106.746094 C 74.039062 109.386719 73.53125 109.785156 73.75 107.398438 C 73.90625 105.667969 73.578125 105.273438 73.371094 106.945312 C 73.15625 108.703125 73.035156 109.136719 72.789062 109.050781 C 72.632812 109 72.574219 108.476562 72.613281 107.480469 C 72.683594 105.6875 72.421875 105.957031 72.0625 108.054688 C 71.878906 109.121094 71.726562 109.515625 71.5 109.515625 C 71.265625 109.515625 71.222656 109.378906 71.320312 108.960938 C 71.652344 107.546875 71.707031 105.832031 71.421875 105.925781 C 71.160156 106.015625 70.484375 109.628906 70.445312 111.179688 C 70.425781 111.875 70.046875 111.875 76.8125 111.128906 Z M 76.8125 111.128906 "/>
<path style=" stroke:none;fill-rule:nonzero;fill:rgb(43.137255%,43.137255%,43.137255%);fill-opacity:1;" d="M 92.035156 106.875 C 97.496094 106.335938 98.78125 106.097656 98.980469 105.589844 C 99.066406 105.363281 99.292969 104.273438 99.480469 103.164062 C 99.671875 102.058594 99.90625 100.828125 100 100.4375 C 100.097656 100.046875 100.273438 99.003906 100.390625 98.121094 C 100.507812 97.238281 100.683594 96.105469 100.785156 95.605469 C 101.085938 94.09375 101.472656 90.484375 101.71875 86.878906 L 101.867188 84.703125 L 101.179688 83.984375 C 99.4375 82.171875 95.167969 79.296875 91.453125 77.441406 C 88.234375 75.835938 82.082031 73.433594 81.179688 73.433594 C 80.945312 73.433594 81.464844 76.472656 81.941406 77.890625 C 82.1875 78.621094 82.65625 79.648438 82.988281 80.164062 C 83.316406 80.683594 83.585938 81.238281 83.585938 81.394531 C 83.585938 82.199219 84.277344 83.519531 85.1875 84.460938 C 86.375 85.6875 86.464844 86.027344 86.382812 89.054688 L 86.320312 91.273438 L 85.433594 91.335938 C 83.480469 91.476562 82.585938 90.402344 82.578125 87.90625 L 82.574219 86.554688 L 81.679688 85.941406 C 80.515625 85.144531 80.535156 85.140625 79.953125 86.476562 C 79.679688 87.105469 79.144531 88.070312 78.761719 88.621094 L 78.070312 89.625 L 78.347656 91.054688 C 78.996094 94.363281 78.570312 96.800781 77.316406 96.984375 C 75.738281 97.214844 74.882812 96.421875 74.882812 94.726562 C 74.882812 94.1875 74.78125 93.789062 74.628906 93.734375 C 74.316406 93.625 73.011719 93.796875 72.808594 93.976562 C 72.507812 94.242188 71.871094 98.800781 71.523438 103.136719 C 71.390625 104.832031 71.402344 104.917969 71.765625 104.804688 C 72.394531 104.613281 79.335938 104.3125 80.6875 104.421875 L 81.933594 104.523438 L 82.167969 105.847656 C 82.292969 106.578125 82.449219 107.253906 82.507812 107.351562 C 82.652344 107.585938 87.164062 107.359375 92.035156 106.875 Z M 92.035156 106.875 "/>
<path style=" stroke:none;fill-rule:nonzero;fill:rgb(100%,87.843137%,74.117647%);fill-opacity:1;" d="M 77.417969 95.929688 C 77.855469 95.613281 77.90625 93.890625 77.519531 92.585938 C 77.257812 91.695312 77.238281 80.691406 77.5 80.691406 C 77.847656 80.691406 77.980469 82 77.953125 85.210938 L 77.925781 88.417969 L 78.421875 87.75 C 78.941406 87.050781 79.535156 85.402344 79.953125 83.511719 C 80.519531 80.953125 80.800781 80.710938 80.957031 82.648438 C 81.050781 83.839844 81.109375 83.957031 82.121094 84.972656 C 83.140625 86.003906 83.183594 86.089844 83.183594 87.148438 C 83.1875 89.242188 83.800781 90.367188 84.949219 90.367188 C 85.386719 90.367188 85.410156 90.292969 85.410156 88.828125 C 85.410156 86.75 85.101562 85.871094 83.9375 84.597656 C 83.160156 83.753906 82.824219 83.148438 82.351562 81.765625 C 82.019531 80.796875 81.578125 79.730469 81.371094 79.390625 C 81.15625 79.042969 80.933594 78.164062 80.851562 77.363281 C 80.5625 74.4375 78.582031 68.09375 77.753906 67.4375 C 77.582031 67.296875 76.964844 67.183594 76.390625 67.183594 C 75.40625 67.183594 75.308594 67.230469 74.820312 67.941406 C 73.949219 69.195312 73.292969 70.902344 72.941406 72.816406 L 72.605469 74.628906 L 71.28125 75.488281 C 70.550781 75.960938 69.636719 76.667969 69.257812 77.058594 C 68.484375 77.847656 66.785156 80.34375 66.785156 80.691406 C 66.785156 80.8125 66.535156 81 66.226562 81.109375 C 63.542969 82.046875 62.707031 83.015625 64.035156 83.644531 C 65.148438 84.171875 67.128906 83.753906 68.378906 82.722656 C 70.578125 80.917969 72.828125 81.121094 73.167969 83.160156 C 73.246094 83.632812 73.84375 86.414062 74.5 89.34375 C 75.15625 92.273438 75.691406 94.785156 75.691406 94.921875 C 75.691406 96.042969 76.5625 96.550781 77.417969 95.929688 Z M 77.417969 95.929688 "/>
<path style=" stroke:none;fill-rule:nonzero;fill:rgb(100%,87.843137%,74.117647%);fill-opacity:1;" d="M 32.542969 92.730469 C 32.917969 91.707031 33.433594 90.324219 33.6875 89.660156 C 34.164062 88.417969 34.167969 88.148438 33.695312 88.148438 C 33.410156 88.148438 32.976562 89.144531 32.976562 89.792969 C 32.976562 90.03125 32.832031 90.164062 32.574219 90.164062 C 32.070312 90.164062 32.070312 90.179688 32.675781 87.242188 C 33.296875 84.234375 33.304688 83.554688 32.726562 82.699219 C 31.984375 81.613281 31.761719 81.699219 31.761719 83.082031 C 31.761719 84.210938 31.542969 84.777344 31.269531 84.339844 C 31.207031 84.238281 31.09375 83.320312 31.023438 82.300781 C 30.929688 81.003906 30.804688 80.417969 30.609375 80.34375 C 30.128906 80.160156 30.070312 80.433594 30.113281 82.640625 C 30.148438 84.453125 30.257812 85.085938 30.796875 86.679688 C 31.417969 88.503906 31.429688 88.613281 31.195312 89.972656 C 30.765625 92.460938 30.976562 94.601562 31.644531 94.597656 C 31.765625 94.597656 32.171875 93.757812 32.542969 92.730469 Z M 32.542969 92.730469 "/>
<path style=" stroke:none;fill-rule:nonzero;fill:rgb(100%,87.843137%,74.117647%);fill-opacity:1;" d="M 74.273438 92.882812 C 74.535156 92.734375 74.226562 90.566406 73.941406 90.566406 C 73.171875 90.566406 72.269531 92.535156 72.796875 93.058594 C 72.917969 93.179688 73.972656 93.054688 74.273438 92.882812 Z M 74.273438 92.882812 "/>
<path style=" stroke:none;fill-rule:nonzero;fill:rgb(100%,87.843137%,74.117647%);fill-opacity:1;" d="M 73.171875 89.667969 C 73.5 88.890625 73.570312 86.824219 73.277344 86.644531 C 73.175781 86.582031 73.035156 87.054688 72.964844 87.691406 C 72.894531 88.332031 72.789062 89.195312 72.730469 89.609375 C 72.59375 90.554688 72.789062 90.582031 73.171875 89.667969 Z M 73.171875 89.667969 "/>
<path style=" stroke:none;fill-rule:nonzero;fill:rgb(100%,87.843137%,74.117647%);fill-opacity:1;" d="M 34.53125 83.515625 C 34.421875 82.097656 33.792969 79.171875 33.492188 78.6875 C 33.417969 78.570312 33.265625 78.472656 33.148438 78.472656 C 33.03125 78.472656 32.757812 78.246094 32.535156 77.96875 C 32.316406 77.691406 31.960938 77.464844 31.742188 77.464844 C 31.523438 77.464844 31.292969 77.328125 31.230469 77.164062 C 31.164062 76.996094 30.9375 76.859375 30.726562 76.859375 C 30.386719 76.859375 30.355469 76.964844 30.472656 77.71875 C 30.546875 78.1875 30.695312 78.753906 30.808594 78.976562 C 31.242188 79.84375 32.6875 81.6875 32.9375 81.691406 C 33.375 81.703125 33.980469 83.324219 33.984375 84.496094 C 33.988281 85.472656 34.023438 85.550781 34.320312 85.304688 C 34.589844 85.082031 34.628906 84.769531 34.53125 83.515625 Z M 34.53125 83.515625 "/>
<path style=" stroke:none;fill-rule:nonzero;fill:rgb(69.019608%,34.901961%,0%);fill-opacity:1;" d="M 59.496094 82.328125 C 59.496094 81.898438 59.554688 81.261719 59.625 80.917969 C 59.820312 79.933594 59.375 80.160156 59.011719 81.230469 C 58.5625 82.539062 58.585938 83.109375 59.09375 83.109375 C 59.425781 83.109375 59.496094 82.976562 59.496094 82.328125 Z M 59.496094 82.328125 "/>
<path style=" stroke:none;fill-rule:nonzero;fill:rgb(69.019608%,34.901961%,0%);fill-opacity:1;" d="M 35.328125 78.546875 C 35.597656 77.84375 35.796875 77.621094 36.234375 77.53125 C 36.746094 77.429688 36.785156 77.359375 36.695312 76.6875 C 36.609375 76.039062 36.351562 74.816406 36.085938 73.800781 C 36.023438 73.566406 36.457031 73.125 37.523438 72.339844 C 39.054688 71.210938 39.988281 70.152344 40.464844 69.007812 C 40.871094 68.03125 41.554688 68.15625 41.382812 69.175781 C 41.261719 69.898438 41.289062 69.960938 41.777344 70.054688 C 42.367188 70.167969 42.730469 69.664062 43.183594 68.109375 C 43.617188 66.609375 44.304688 67.132812 44.316406 68.972656 C 44.320312 69.375 44.488281 69.164062 45.011719 68.09375 C 45.796875 66.496094 47.058594 65.105469 47.332031 65.542969 C 47.425781 65.691406 47.613281 66.769531 47.753906 67.941406 L 48.007812 70.074219 L 48.3125 69.386719 C 48.480469 69.007812 48.675781 68.378906 48.746094 67.992188 C 48.917969 67.058594 49.410156 67.070312 49.632812 68.011719 C 49.78125 68.628906 49.875 68.722656 50.28125 68.648438 C 50.664062 68.574219 50.777344 68.386719 50.886719 67.671875 C 50.960938 67.183594 51.167969 66.640625 51.351562 66.457031 C 51.65625 66.152344 51.699219 66.1875 51.949219 66.90625 C 52.5 68.480469 54.226562 69.617188 54.5 68.578125 C 54.570312 68.308594 54.742188 68.183594 54.980469 68.226562 C 55.445312 68.316406 55.585938 69.746094 55.246094 70.890625 C 55.078125 71.445312 55.074219 71.730469 55.230469 71.886719 C 55.386719 72.042969 55.449219 72.035156 55.449219 71.867188 C 55.449219 71.734375 55.683594 71.476562 55.972656 71.289062 C 56.566406 70.902344 56.855469 71.125 56.863281 71.972656 C 56.863281 72.238281 56.992188 72.425781 57.164062 72.425781 C 57.328125 72.425781 57.597656 72.6875 57.765625 73.007812 C 57.929688 73.328125 58.285156 73.644531 58.554688 73.710938 C 58.820312 73.777344 59.371094 74.195312 59.773438 74.640625 C 60.644531 75.601562 60.707031 75.617188 60.722656 74.894531 C 60.726562 74.589844 61.050781 73.433594 61.441406 72.324219 C 62.378906 69.648438 62.417969 69.410156 62.136719 67.925781 C 61.898438 66.683594 61.871094 66.640625 61.015625 66.289062 C 59.976562 65.863281 59.683594 65.230469 60.433594 65.042969 C 60.703125 64.976562 61.023438 64.738281 61.144531 64.511719 C 61.359375 64.117188 61.328125 64.109375 59.902344 64.25 C 59.101562 64.328125 58.304688 64.445312 58.136719 64.507812 C 57.878906 64.609375 57.851562 64.472656 57.96875 63.636719 C 58.226562 61.78125 58.261719 61.878906 57.316406 61.714844 C 56.203125 61.515625 56.132812 61.464844 55.988281 60.746094 C 55.921875 60.414062 55.679688 59.957031 55.453125 59.734375 C 55.214844 59.496094 55.042969 59.058594 55.042969 58.691406 C 55.042969 58.070312 55.035156 58.0625 54.207031 58.171875 C 53.742188 58.234375 52.988281 58.558594 52.503906 58.90625 C 51.515625 59.613281 51.210938 59.675781 51.167969 59.171875 C 51.148438 58.980469 51.125 58.699219 51.113281 58.554688 C 51.074219 58.027344 50.277344 57.8125 48.382812 57.8125 L 46.480469 57.8125 L 45.828125 56.640625 C 45.207031 55.519531 45.164062 55.484375 44.820312 55.828125 C 44.050781 56.59375 43.570312 58.890625 44.113281 59.222656 C 44.589844 59.515625 44.269531 59.933594 43.402344 60.152344 C 42.585938 60.355469 42.492188 60.441406 42.492188 60.960938 C 42.492188 61.53125 42.472656 61.542969 41.351562 61.542969 C 39.726562 61.542969 38.679688 61.898438 38.328125 62.574219 C 37.957031 63.289062 37.960938 63.957031 38.332031 64.242188 C 38.582031 64.433594 38.550781 64.617188 38.113281 65.523438 C 37.640625 66.5 37.550781 66.582031 36.894531 66.582031 C 36.378906 66.582031 36.023438 66.417969 35.578125 65.976562 C 34.761719 65.160156 34.597656 65.210938 34.597656 66.277344 C 34.597656 67.09375 34.644531 67.183594 35.070312 67.183594 C 35.828125 67.183594 35.847656 67.390625 35.191406 68.546875 C 34.496094 69.78125 33.578125 70.75 32.855469 71.023438 C 32.171875 71.28125 32.226562 71.933594 32.953125 72.1875 C 33.773438 72.46875 33.609375 73.332031 32.648438 73.789062 C 31.898438 74.144531 31.734375 74.644531 32.371094 74.644531 C 32.59375 74.644531 32.777344 74.738281 32.777344 74.851562 C 32.777344 74.96875 32.59375 75.417969 32.371094 75.851562 C 31.855469 76.859375 31.859375 76.894531 32.492188 76.738281 C 33.078125 76.589844 33.375 76.878906 33.378906 77.59375 C 33.382812 77.84375 33.542969 78.066406 33.765625 78.121094 C 34.03125 78.191406 34.191406 78.480469 34.292969 79.0625 C 34.464844 80.085938 34.800781 79.921875 35.328125 78.546875 Z M 35.328125 78.546875 "/>
<path style=" stroke:none;fill-rule:nonzero;fill:rgb(84.313725%,90.980392%,90.980392%);fill-opacity:1;" d="M 73.742188 68.242188 C 73.957031 67.28125 74.382812 66.953125 75.820312 66.652344 C 77.554688 66.292969 77.570312 66.269531 76.277344 65.886719 C 74.585938 65.386719 73.117188 65.800781 72.160156 67.054688 C 71.445312 67.988281 71.5 68.316406 72.402344 68.554688 C 73.542969 68.855469 73.605469 68.84375 73.742188 68.242188 Z M 73.742188 68.242188 "/>
<path style=" stroke:none;fill-rule:nonzero;fill:rgb(1.176471%,44.705882%,56.470588%);fill-opacity:1;" d="M 70.699219 67.699219 C 70.761719 67.539062 71.5 66.847656 72.339844 66.160156 C 73.183594 65.472656 73.871094 64.820312 73.871094 64.710938 C 73.871094 64.394531 70.65625 64.671875 69.667969 65.070312 C 68.78125 65.425781 67.121094 67.078125 67.25 67.472656 C 67.414062 67.957031 70.519531 68.164062 70.699219 67.699219 Z M 70.699219 67.699219 "/>
<path style=" stroke:none;fill-rule:nonzero;fill:rgb(0%,0%,0%);fill-opacity:1;" d="M 63.339844 60.28125 C 63.335938 60.144531 63.492188 58.332031 63.683594 56.253906 C 63.871094 54.179688 63.976562 52.429688 63.910156 52.363281 C 63.773438 52.226562 59.195312 52.121094 52.058594 50.910156 C 44.921875 49.699219 40.964844 47.304688 37.414062 43.804688 C 35.269531 41.691406 34.71875 40.632812 33.730469 36.75 C 33.082031 34.1875 33.09375 28.988281 33.753906 26.164062 C 35.710938 17.824219 41.289062 9.714844 48.632812 4.523438 C 53.113281 1.359375 63.175781 -0.75 69.027344 0.25 C 69.632812 0.351562 70.761719 0.546875 71.542969 0.679688 C 76.695312 1.558594 85.175781 5.785156 88.164062 8.96875 C 89.511719 10.402344 92.339844 15.496094 93.242188 18.101562 C 95.09375 23.472656 94.835938 31.007812 92.644531 35.601562 C 88.273438 44.753906 83.566406 48.285156 71.671875 51.34375 C 69.734375 51.84375 68.132812 52.277344 68.109375 52.308594 C 68.082031 52.34375 67.160156 54.140625 66.058594 56.300781 C 64.953125 58.460938 63.960938 60.296875 63.851562 60.378906 C 63.546875 60.601562 63.34375 60.5625 63.339844 60.28125 Z M 63.339844 60.28125 "/>
<path style=" stroke:none;fill-rule:nonzero;fill:rgb(65.098039%,99.607843%,90.196078%);fill-opacity:1;" d="M 66.375 53.730469 C 67.6875 51.03125 67.746094 50.976562 69.660156 50.746094 C 74.8125 49.738281 81.082031 47.789062 84.050781 45.253906 C 87.296875 42.488281 90.203125 39.664062 91.582031 36.027344 C 93.339844 31.394531 93.925781 26.328125 93.214844 22.007812 C 92.894531 20.066406 91.382812 15.398438 90.914062 14.484375 C 88.757812 10.304688 84.195312 6.105469 79.203125 4.011719 C 75.199219 2.328125 71.601562 1.507812 66.078125 1.007812 C 65.324219 0.9375 63.070312 1.179688 56.816406 2.085938 C 50.5625 2.996094 43.753906 8.269531 39.054688 16.085938 C 35.492188 22.015625 34.136719 26.546875 34.136719 32.515625 C 34.132812 36.628906 34.730469 39.34375 37.09375 42.230469 C 39.03125 44.589844 39.792969 45.425781 45.125 47.9375 C 51.949219 51.152344 58.347656 50.949219 64.660156 51.160156 L 64.65625 52.269531 C 64.65625 52.878906 64.582031 54.285156 64.492188 55.394531 L 64.332031 57.410156 L 64.753906 56.804688 C 64.984375 56.472656 65.714844 55.089844 66.375 53.730469 Z M 66.375 53.730469 "/>
<path style=" stroke:none;fill-rule:nonzero;fill:rgb(0%,0%,0%);fill-opacity:1;" d="M 52.035156 43.847656 C 51.867188 43.789062 51.804688 42.03125 51.808594 37.488281 C 51.816406 30.269531 51.546875 31.21875 54.234375 28.839844 C 56.230469 27.070312 58.882812 24.523438 59.304688 23.96875 C 59.589844 23.597656 59.542969 23.589844 57.777344 23.703125 C 56.773438 23.769531 55.0625 24.054688 53.976562 24.339844 C 52.886719 24.625 51.90625 24.855469 51.800781 24.855469 C 51.429688 24.855469 51.546875 12.527344 51.917969 11.996094 C 52.429688 11.269531 53.585938 10.816406 55.851562 10.453125 C 57.023438 10.265625 59.164062 9.886719 60.609375 9.609375 C 66.898438 8.414062 71.554688 7.726562 73.382812 7.722656 L 74.417969 7.722656 L 74.234375 8.882812 C 74.074219 9.875 74.140625 21.445312 74.316406 24.023438 L 74.375 24.902344 L 70.367188 26.914062 C 68.046875 28.082031 66.394531 29.027344 66.445312 29.160156 C 66.492188 29.285156 66.621094 29.371094 66.734375 29.347656 C 67.253906 29.242188 73.753906 28.890625 75.226562 28.886719 L 76.886719 28.886719 L 77 29.542969 C 77.292969 31.273438 77.703125 35.523438 77.828125 38.074219 L 77.96875 40.914062 L 73.605469 41.046875 C 66.726562 41.253906 59.152344 42.191406 54.09375 43.464844 C 53.089844 43.71875 52.164062 43.890625 52.035156 43.847656 Z M 52.035156 43.847656 "/>
<path style=" stroke:none;fill-rule:nonzero;fill:rgb(99.607843%,99.607843%,30.588235%);fill-opacity:1;" d="M 55.015625 42.269531 C 55.417969 42.1875 55.472656 42.085938 55.367188 41.628906 C 55.144531 40.664062 54.855469 37.300781 54.847656 35.589844 C 54.84375 34.242188 54.898438 33.925781 55.144531 33.925781 C 55.394531 33.925781 55.453125 34.316406 55.472656 36.144531 C 55.488281 37.363281 55.515625 38.429688 55.535156 38.511719 C 55.554688 38.59375 55.644531 39.367188 55.730469 40.222656 C 55.816406 41.082031 55.957031 41.828125 56.039062 41.878906 C 56.121094 41.929688 57.367188 41.835938 58.804688 41.671875 C 62.640625 41.238281 69.425781 40.59375 70.292969 40.585938 L 70.863281 40.578125 L 70.796875 36.796875 C 70.757812 34.390625 70.804688 33 70.933594 32.96875 C 71.0625 32.9375 71.175781 34.292969 71.238281 36.597656 C 71.3125 39.292969 71.40625 40.261719 71.582031 40.230469 C 71.714844 40.203125 72.980469 40.121094 74.390625 40.046875 L 76.960938 39.910156 L 76.828125 38.378906 C 76.757812 37.539062 76.609375 35.535156 76.5 33.925781 C 76.390625 32.320312 76.25 30.699219 76.1875 30.332031 L 76.074219 29.660156 L 72.695312 29.789062 C 70.835938 29.863281 68.417969 30.007812 67.320312 30.109375 C 62.933594 30.523438 62.28125 30.210938 64.789062 28.886719 C 65.527344 28.5 66.980469 27.683594 68.027344 27.074219 C 70.144531 25.84375 70.558594 25.609375 72.09375 24.789062 L 73.160156 24.21875 L 73.160156 8.484375 L 72.148438 8.601562 C 71.59375 8.664062 70.589844 8.804688 69.921875 8.910156 C 69.253906 9.015625 67.707031 9.246094 66.480469 9.425781 C 64.265625 9.75 63.78125 9.832031 60.507812 10.445312 C 57.632812 10.980469 53.222656 12.070312 52.542969 12.40625 C 52.191406 12.582031 52.175781 12.914062 52.242188 18.105469 C 52.28125 21.132812 52.367188 23.667969 52.433594 23.734375 C 52.542969 23.84375 56.222656 22.972656 57.980469 22.429688 C 58.730469 22.195312 62.121094 21.839844 62.441406 21.964844 C 62.898438 22.136719 62.492188 23.035156 61.75 23.488281 C 60.722656 24.121094 55.835938 28.347656 54.132812 30.078125 L 52.714844 31.519531 L 52.683594 36.78125 C 52.664062 39.675781 52.695312 42.167969 52.753906 42.320312 C 52.855469 42.582031 53.558594 42.566406 55.015625 42.269531 Z M 55.015625 42.269531 "/>
<path style=" stroke:none;fill-rule:nonzero;fill:rgb(0%,0%,0%);fill-opacity:1;" d="M 53.953125 41.234375 C 53.5 39.742188 53.210938 32.515625 53.605469 32.515625 C 53.9375 32.515625 54.019531 33.101562 54.015625 35.5 C 54.015625 36.8125 54.0625 38.242188 54.117188 38.675781 C 54.40625 40.917969 54.4375 41.585938 54.253906 41.585938 C 54.148438 41.585938 54.011719 41.425781 53.953125 41.234375 Z M 53.953125 41.234375 "/>
<path style=" stroke:none;fill-rule:nonzero;fill:rgb(0%,0%,0%);fill-opacity:1;" d="M 66.179688 36.949219 C 66.179688 34.21875 66.222656 33.726562 66.480469 33.726562 C 66.738281 33.726562 66.785156 34.21875 66.785156 36.949219 C 66.785156 39.683594 66.738281 40.175781 66.480469 40.175781 C 66.222656 40.175781 66.179688 39.683594 66.179688 36.949219 Z M 66.179688 36.949219 "/>
<path style=" stroke:none;fill-rule:nonzero;fill:rgb(0%,0%,0%);fill-opacity:1;" d="M 56.796875 39.839844 C 56.722656 39.765625 56.664062 38.542969 56.664062 37.125 C 56.664062 34.914062 56.707031 34.558594 56.96875 34.660156 C 57.214844 34.753906 57.269531 35.25 57.269531 37.375 C 57.269531 39.75 57.179688 40.21875 56.796875 39.839844 Z M 56.796875 39.839844 "/>
<path style=" stroke:none;fill-rule:nonzero;fill:rgb(0%,0%,0%);fill-opacity:1;" d="M 64.695312 39.519531 C 64.632812 39.269531 64.527344 38.160156 64.460938 37.050781 C 64.394531 35.941406 64.292969 34.648438 64.234375 34.179688 C 64.152344 33.515625 64.195312 33.320312 64.421875 33.320312 C 64.726562 33.320312 64.734375 33.382812 65.078125 38.210938 C 65.15625 39.3125 65.128906 39.972656 65.003906 39.972656 C 64.894531 39.972656 64.753906 39.769531 64.695312 39.519531 Z M 64.695312 39.519531 "/>
<path style=" stroke:none;fill-rule:nonzero;fill:rgb(0%,0%,0%);fill-opacity:1;" d="M 69.542969 39.519531 C 69.476562 39.269531 69.421875 37.863281 69.417969 36.394531 C 69.417969 34.15625 69.464844 33.726562 69.71875 33.726562 C 69.976562 33.726562 70.023438 34.207031 70.023438 36.847656 C 70.023438 39.71875 69.851562 40.667969 69.542969 39.519531 Z M 69.542969 39.519531 "/>
<path style=" stroke:none;fill-rule:nonzero;fill:rgb(0%,0%,0%);fill-opacity:1;" d="M 61.367188 39.519531 C 60.875 38.910156 60.890625 32.375 61.382812 32.925781 C 61.476562 33.027344 61.71875 39.773438 61.625 39.773438 C 61.597656 39.773438 61.480469 39.660156 61.367188 39.519531 Z M 61.367188 39.519531 "/>
<path style=" stroke:none;fill-rule:nonzero;fill:rgb(0%,0%,0%);fill-opacity:1;" d="M 68 36.964844 C 68 35.421875 67.945312 34.015625 67.875 33.84375 C 67.796875 33.632812 67.867188 33.523438 68.078125 33.523438 C 68.363281 33.523438 68.40625 33.914062 68.40625 36.648438 C 68.40625 38.597656 68.328125 39.773438 68.203125 39.773438 C 68.078125 39.773438 68 38.703125 68 36.964844 Z M 68 36.964844 "/>
<path style=" stroke:none;fill-rule:nonzero;fill:rgb(0%,0%,0%);fill-opacity:1;" d="M 57.675781 37.253906 C 57.675781 35.324219 57.726562 34.933594 57.980469 34.933594 C 58.230469 34.933594 58.28125 35.324219 58.28125 37.253906 C 58.28125 39.179688 58.230469 39.570312 57.980469 39.570312 C 57.726562 39.570312 57.675781 39.179688 57.675781 37.253906 Z M 57.675781 37.253906 "/>
<path style=" stroke:none;fill-rule:nonzero;fill:rgb(0%,0%,0%);fill-opacity:1;" d="M 59.882812 39.019531 C 59.648438 38.402344 59.25 33.15625 59.417969 32.882812 C 59.683594 32.457031 59.902344 33.042969 59.90625 34.191406 C 59.910156 35.316406 60.105469 37.136719 60.414062 38.914062 C 60.554688 39.722656 60.179688 39.796875 59.882812 39.019531 Z M 59.882812 39.019531 "/>
<path style=" stroke:none;fill-rule:nonzero;fill:rgb(0%,0%,0%);fill-opacity:1;" d="M 62.734375 38.410156 C 62.734375 37.773438 62.675781 36.367188 62.605469 35.285156 C 62.488281 33.542969 62.511719 33.320312 62.808594 33.320312 C 63.101562 33.320312 63.140625 33.652344 63.140625 36.128906 C 63.140625 37.671875 63.195312 39.074219 63.265625 39.25 C 63.34375 39.460938 63.273438 39.570312 63.0625 39.570312 C 62.800781 39.570312 62.734375 39.339844 62.734375 38.410156 Z M 62.734375 38.410156 "/>
<path style=" stroke:none;fill-rule:nonzero;fill:rgb(0%,0%,0%);fill-opacity:1;" d="M 72.460938 39.277344 C 72.171875 38.929688 71.886719 36.453125 71.859375 34.078125 C 71.847656 32.996094 71.910156 32.71875 72.148438 32.71875 C 72.328125 32.71875 72.453125 32.902344 72.453125 33.160156 C 72.453125 33.402344 72.550781 34.851562 72.671875 36.382812 C 72.914062 39.429688 72.886719 39.789062 72.460938 39.277344 Z M 72.460938 39.277344 "/>
<path style=" stroke:none;fill-rule:nonzero;fill:rgb(0%,0%,0%);fill-opacity:1;" d="M 73.785156 39.394531 C 73.613281 39.117188 73.550781 32.96875 73.71875 32.800781 C 73.988281 32.53125 74.019531 32.769531 74.125 36.195312 C 74.222656 39.203125 74.140625 39.96875 73.785156 39.394531 Z M 73.785156 39.394531 "/>
<path style=" stroke:none;fill-rule:nonzero;fill:rgb(0%,0%,0%);fill-opacity:1;" d="M 75.015625 36.597656 C 74.78125 34.144531 74.84375 32.71875 75.1875 32.71875 C 75.4375 32.71875 75.488281 33.074219 75.488281 34.707031 C 75.488281 35.800781 75.546875 36.980469 75.617188 37.328125 C 75.710938 37.804688 75.671875 37.957031 75.441406 37.957031 C 75.222656 37.957031 75.109375 37.605469 75.015625 36.597656 Z M 75.015625 36.597656 "/>
<path style=" stroke:none;fill-rule:nonzero;fill:rgb(0%,0%,0%);fill-opacity:1;" d="M 66.511719 24.503906 C 66.316406 23.335938 66.359375 20.054688 66.566406 19.925781 C 66.769531 19.804688 66.917969 20.90625 67.0625 23.597656 C 67.128906 24.855469 67.089844 25.257812 66.894531 25.257812 C 66.75 25.257812 66.578125 24.917969 66.511719 24.503906 Z M 66.511719 24.503906 "/>
<path style=" stroke:none;fill-rule:nonzero;fill:rgb(0%,0%,0%);fill-opacity:1;" d="M 67.726562 23.898438 C 67.660156 23.59375 67.542969 22.097656 67.46875 20.574219 C 67.347656 18.167969 67.371094 17.800781 67.636719 17.800781 C 67.890625 17.800781 67.964844 18.289062 68.058594 20.671875 C 68.125 22.253906 68.238281 23.75 68.3125 24 C 68.414062 24.328125 68.367188 24.453125 68.148438 24.453125 C 67.980469 24.453125 67.792969 24.203125 67.726562 23.898438 Z M 67.726562 23.898438 "/>
<path style=" stroke:none;fill-rule:nonzero;fill:rgb(0%,0%,0%);fill-opacity:1;" d="M 70.136719 23.597656 C 69.730469 21.167969 69.578125 12.933594 69.933594 12.582031 C 70.15625 12.359375 70.207031 12.949219 70.332031 17.398438 C 70.40625 20.003906 70.535156 22.609375 70.621094 23.191406 C 70.792969 24.398438 70.332031 24.78125 70.136719 23.597656 Z M 70.136719 23.597656 "/>
<path style=" stroke:none;fill-rule:nonzero;fill:rgb(0%,0%,0%);fill-opacity:1;" d="M 68.671875 23.191406 C 68.582031 23.054688 68.472656 21.058594 68.433594 18.757812 C 68.371094 15.074219 68.402344 14.574219 68.679688 14.574219 C 68.953125 14.574219 68.992188 15 68.972656 17.75 C 68.960938 19.496094 69.019531 21.492188 69.101562 22.183594 C 69.25 23.40625 69.074219 23.816406 68.671875 23.191406 Z M 68.671875 23.191406 "/>
<path style=" stroke:none;fill-rule:nonzero;fill:rgb(0%,0%,0%);fill-opacity:1;" d="M 71.128906 22.382812 C 70.933594 21.875 71.132812 13.566406 71.339844 13.566406 C 71.46875 13.566406 71.5625 15.25 71.597656 18.101562 C 71.632812 21.171875 71.582031 22.636719 71.4375 22.636719 C 71.320312 22.636719 71.179688 22.523438 71.128906 22.382812 Z M 71.128906 22.382812 "/>
</g>
</svg>
