<?xml version="1.0" encoding="UTF-8" standalone="no"?>
<!-- Created with Inkscape (http://www.inkscape.org/) -->

<svg
   version="1.1"
   id="svg2"
   width="460.10666"
   height="167.77333"
   viewBox="0 0 460.10666 167.77333"
   sodipodi:docname="logo.eps"
   xmlns:inkscape="http://www.inkscape.org/namespaces/inkscape"
   xmlns:sodipodi="http://sodipodi.sourceforge.net/DTD/sodipodi-0.dtd"
   xmlns="http://www.w3.org/2000/svg"
   xmlns:svg="http://www.w3.org/2000/svg">
  <defs
     id="defs6" />
  <sodipodi:namedview
     id="namedview4"
     pagecolor="#ffffff"
     bordercolor="#000000"
     borderopacity="0.25"
     inkscape:showpageshadow="2"
     inkscape:pageopacity="0.0"
     inkscape:pagecheckerboard="0"
     inkscape:deskcolor="#d1d1d1" />
  <g
     id="g8"
     inkscape:groupmode="layer"
     inkscape:label="ink_ext_XXXXXX"
     transform="matrix(1.3333333,0,0,-1.3333333,0,167.77333)">
    <g
       id="g10"
       transform="scale(0.1)">
      <path
         d="m 671.754,268.883 c -6.324,0 -11.473,5.148 -11.473,11.472 0,6.329 5.149,11.473 11.473,11.473 6.328,0 11.476,-5.144 11.476,-11.473 0,-6.324 -5.148,-11.472 -11.476,-11.472 z m 0,24.68 c -7.281,0 -13.207,-5.922 -13.207,-13.208 0,-7.281 5.926,-13.207 13.207,-13.207 7.281,0 13.207,5.926 13.207,13.207 0,7.286 -5.926,13.208 -13.207,13.208"
         style="fill:#00244c;fill-opacity:1;fill-rule:nonzero;stroke:none"
         id="path12" />
      <path
         d="m 669.23,284.813 v -4.204 h 3.774 c 1.574,0 2.25,1.047 2.25,2.098 0,1.055 -0.695,2.106 -2.25,2.106 z m 9.161,-10.829 h -2.95 l -3.828,4.391 h -2.383 v -4.391 h -2.476 v 13.153 c 2.082,0 4.164,-0.02 6.25,-0.02 3.094,-0.015 4.726,-2.082 4.726,-4.351 0,-1.801 -0.824,-3.621 -3.32,-4.129 l 3.981,-4.485 v -0.168"
         style="fill:#00244c;fill-opacity:1;fill-rule:nonzero;stroke:none"
         id="path14" />
      <path
         d="m 453.098,779.949 c 1.09,-2.047 2.246,-6.914 2.246,-11.902 0,-6.664 -1.754,-10.496 -3.547,-13.848 l -3.965,-6.179 -0.137,-0.239 c -0.078,-0.152 -0.23,-0.328 -0.328,-0.394 -0.062,0.011 -0.5,0.125 -1.359,1.133 -2.207,2.574 -4.801,6.628 -4.801,11.48 0,0.129 0.004,0.262 0.008,0.391 0.16,5.621 2.621,10.898 4.664,14.339 2.383,4.02 3.957,6.766 5.019,8.75 1.102,-1.765 2.2,-3.531 2.2,-3.531 z m -5.192,7.274 c -1.148,-2.711 -0.676,-1.563 -5.828,-10.243 -2.301,-3.89 -5.086,-9.898 -5.273,-16.46 -0.188,-6.434 3.078,-11.637 5.851,-14.875 0.918,-1.071 1.856,-1.801 2.805,-2.235 v -3.406 h -4.039 c -1.766,0 -3.192,-1.883 -3.192,-4.203 V 628.957 h 19.125 v 106.844 c 0,2.32 -1.425,4.203 -3.187,4.203 h -4.297 v 3.773 c 0.93,0.661 1.496,1.52 1.699,1.914 0.16,0.25 4.114,6.422 4.114,6.422 1.972,3.68 4.074,8.246 4.074,15.934 0,5.172 -1.137,10.922 -2.762,13.976 0,0 -3.457,5.801 -4.605,7.407 -1.153,1.601 -3.176,3.746 -3.176,3.746 0,0 0,-2.86 -1.309,-5.953"
         style="fill:#00244c;fill-opacity:1;fill-rule:nonzero;stroke:none"
         id="path16" />
      <path
         d="m 574.508,661.613 c -0.742,1.059 -1.61,2.184 -2.059,3.211 l 7.879,6.781 -11.402,14.711 -8.188,-7.031 c -1.175,0.442 -2.414,1.817 -3.578,2.985 -1.84,1.839 -9.418,12.234 -34.933,26.109 -37.875,20.594 -52.954,13.238 -52.954,13.238 0,0 7.723,1.473 38.243,-15.078 14.437,-7.824 25.007,-26.476 25.375,-34.199 0.367,-7.723 -2.575,-12.867 -2.575,-12.867 l 3.036,-3.688 -82.024,-70.387 -79.297,71.637 c 1.793,2.629 5.043,7.516 5.989,9.813 1.332,3.226 8.73,21.254 8.73,21.254 0,0 1.52,2.847 -1.137,5.691 -2.66,2.848 -12.527,11.766 -12.527,11.766 0,0 -2.086,2.464 -7.02,-0.192 -4.933,-2.652 -25.046,-14.988 -25.046,-14.988 l -2.848,-3.227 -2.469,2.086 c 0,0 -1.519,1.52 -3.797,-1.515 L 324,678.793 c -2.797,-2.563 -1.141,-3.93 -1.141,-3.93 l 2.321,-2.25 -2.934,-3.144 c 0,0 -10.32,-21.223 -12.484,-26.391 -2.164,-5.168 0.496,-7.004 0.496,-7.004 0,0 9.836,-8.957 12.926,-11.324 3.089,-2.367 5.777,-0.578 5.777,-0.578 0,0 17.223,9.121 20.305,10.754 2.718,1.445 9.07,6.812 10.511,8.043 L 428.805,580.41 H 338.73 c -10.628,0 -14.71,-6.109 -15.183,-6.883 0.473,-0.769 4.555,-6.879 15.183,-6.879 h 90.747 L 299.383,455.016 310.785,439.57 451.008,560.281 584.195,439.566 595.98,454.727 472.086,566.648 h 101.18 v -3.074 h 3.812 v 19.996 h -3.812 v -3.16 h -98.875 l 70.972,61.098 2.047,-2.391 c 0,0 5.578,2.008 13.121,0.313 7.539,-1.7 24.086,-15.332 29.297,-30.907 11.02,-32.921 8.235,-40.269 8.235,-40.269 0,0 9.851,13.57 -3.879,54.437 -9.254,27.532 -18.184,36.793 -19.676,38.922"
         style="fill:#00244c;fill-opacity:1;fill-rule:nonzero;stroke:none"
         id="path18" />
      <path
         d="m 323.5,573.449 c 0,0 0.016,0.028 0.047,0.078 -0.031,0.055 -0.047,0.082 -0.047,0.082 v -0.16"
         style="fill:#00244c;fill-opacity:1;fill-rule:nonzero;stroke:none"
         id="path20" />
      <path
         d="m 433.922,750.328 -16.008,-17.433 19.746,12.093 z"
         style="fill:#00244c;fill-opacity:1;fill-rule:nonzero;stroke:none"
         id="path22" />
      <path
         d="m 430.367,757.441 -20.101,-13.695 22.234,8.539 z"
         style="fill:#00244c;fill-opacity:1;fill-rule:nonzero;stroke:none"
         id="path24" />
      <path
         d="m 405.461,755.484 23.66,3.914 -0.715,5.336 z"
         style="fill:#00244c;fill-opacity:1;fill-rule:nonzero;stroke:none"
         id="path26" />
      <path
         d="m 428.586,771.316 -25.258,-0.711 25.258,-4.089 z"
         style="fill:#00244c;fill-opacity:1;fill-rule:nonzero;stroke:none"
         id="path28" />
      <path
         d="m 428.406,778.434 -22.23,4.089 22.054,-9.425 z"
         style="fill:#00244c;fill-opacity:1;fill-rule:nonzero;stroke:none"
         id="path30" />
      <path
         d="m 430.367,785.016 -18.324,9.429 16.363,-13.879 z"
         style="fill:#00244c;fill-opacity:1;fill-rule:nonzero;stroke:none"
         id="path32" />
      <path
         d="m 433.746,790.527 -15.301,14.235 12.813,-17.614 z"
         style="fill:#00244c;fill-opacity:1;fill-rule:nonzero;stroke:none"
         id="path34" />
      <path
         d="m 438.906,793.91 -10.14,18.856 6.402,-21.168 z"
         style="fill:#00244c;fill-opacity:1;fill-rule:nonzero;stroke:none"
         id="path36" />
      <path
         d="m 444.598,796.043 -6.582,23.84 2.488,-24.906 z"
         style="fill:#00244c;fill-opacity:1;fill-rule:nonzero;stroke:none"
         id="path38" />
      <path
         d="m 449.578,829.664 -3.203,-33.266 h 4.094 z"
         style="fill:#00244c;fill-opacity:1;fill-rule:nonzero;stroke:none"
         id="path40" />
      <path
         d="m 461.141,821.129 -8.36,-25.086 4.09,-1.422 z"
         style="fill:#00244c;fill-opacity:1;fill-rule:nonzero;stroke:none"
         id="path42" />
      <path
         d="m 461.496,790.707 7.469,22.059 -10.672,-19.391 z"
         style="fill:#00244c;fill-opacity:1;fill-rule:nonzero;stroke:none"
         id="path44" />
      <path
         d="m 464.875,785.191 13.52,17.789 -15.832,-13.875 z"
         style="fill:#00244c;fill-opacity:1;fill-rule:nonzero;stroke:none"
         id="path46" />
      <path
         d="m 466.832,778.434 20.102,14.941 -21.524,-9.961 z"
         style="fill:#00244c;fill-opacity:1;fill-rule:nonzero;stroke:none"
         id="path48" />
      <path
         d="m 467.723,772.563 24.906,7.292 -24.906,-3.023 z"
         style="fill:#00244c;fill-opacity:1;fill-rule:nonzero;stroke:none"
         id="path50" />
      <path
         d="m 467.898,770.25 -0.355,-3.914 26.684,3.383 z"
         style="fill:#00244c;fill-opacity:1;fill-rule:nonzero;stroke:none"
         id="path52" />
      <path
         d="m 466.832,763.668 -1.242,-4.801 26.144,-5.691 z"
         style="fill:#00244c;fill-opacity:1;fill-rule:nonzero;stroke:none"
         id="path54" />
      <path
         d="m 464.695,756.375 -1.957,-4.625 22.953,-9.961 z"
         style="fill:#00244c;fill-opacity:1;fill-rule:nonzero;stroke:none"
         id="path56" />
      <path
         d="m 458.828,745.523 18.676,-13.519 -15.297,18.144 z"
         style="fill:#00244c;fill-opacity:1;fill-rule:nonzero;stroke:none"
         id="path58" />
      <path
         d="m 416.137,413.57 c -4.953,0 -8.973,3.672 -8.973,8.2 0,4.527 4.02,8.199 8.973,8.199 4.953,0 8.968,-3.672 8.968,-8.199 0,-4.528 -4.015,-8.2 -8.968,-8.2 z m 0,41.008 c 4.097,0 7.418,-3.32 7.418,-7.422 0,-4.097 -3.321,-7.418 -7.418,-7.418 -4.102,0 -7.422,3.321 -7.422,7.418 0,4.102 3.32,7.422 7.422,7.422 z m 12.422,-19.922 c 4.562,2.934 7.496,7.442 7.496,12.5 0,8.844 -8.918,16.012 -19.918,16.012 -11,0 -19.918,-7.168 -19.918,-16.012 0,-5.058 2.929,-9.566 7.492,-12.5 -5.695,-3.172 -9.434,-8.457 -9.434,-14.449 0,-9.703 9.786,-17.57 21.86,-17.57 12.07,0 21.855,7.867 21.855,17.57 0,5.992 -3.734,11.277 -9.433,14.449"
         style="fill:#00244c;fill-opacity:1;fill-rule:nonzero;stroke:none"
         id="path60" />
      <path
         d="m 369.34,456.008 c -2.305,-2.434 -5.926,-3.77 -5.926,-3.77 V 440.52 c 0,0 3.469,0.621 5.031,1.402 1.563,0.781 4.344,2.894 4.344,2.894 v -42.175 h 14.449 v 60.14 H 372.93 c 0,0 -1.692,-4.765 -3.59,-6.773"
         style="fill:#00244c;fill-opacity:1;fill-rule:nonzero;stroke:none"
         id="path62" />
      <path
         d="m 441.824,451.27 h 25.481 c 0,0 -5.121,-6.657 -11.141,-21.77 -6.016,-15.109 -6.527,-26.25 -6.527,-26.25 h 14.593 c 0,0 0.102,5.941 7.172,26.637 5.379,15.75 11.657,21.254 11.657,21.254 v 11.656 H 441.824 V 451.27"
         style="fill:#00244c;fill-opacity:1;fill-rule:nonzero;stroke:none"
         id="path64" />
      <path
         d="m 508.285,424.25 h -11.012 l 11.012,16.902 z m 14.602,38.289 h -12.426 l -25.867,-38.93 v -10.246 h 23.691 v -10.754 h 14.598 v 10.754 h 8.324 v 11.141 h -8.32 v 38.035"
         style="fill:#00244c;fill-opacity:1;fill-rule:nonzero;stroke:none"
         id="path66" />
      <path
         d="m 447.922,371.57 c -115.703,-0.254 -205.875,37.075 -234.484,50.473 1.375,18.57 12.21,131.121 78.179,240.254 65.531,108.402 144.113,165.219 158.11,174.812 13.894,-9.609 91.644,-66.336 156.972,-174.804 65.891,-109.399 76.457,-222.188 77.774,-240.52 -15.395,-7.586 -107.078,-49.93 -236.551,-50.215 z m 166.34,295.285 C 541.496,787.672 453.016,845.582 452.129,846.152 l -2.379,1.536 -2.387,-1.528 C 446.465,845.59 357.031,787.559 284.066,666.863 211.055,546.086 204.477,420.785 204.418,419.531 l -0.137,-2.922 2.637,-1.257 c 25.898,-12.411 119.816,-52.872 241.02,-52.606 143.789,0.313 242.234,51.992 243.21,52.516 l 2.454,1.308 -0.125,2.778 c -0.055,1.254 -6.403,126.613 -79.215,247.507"
         style="fill:#00244c;fill-opacity:1;fill-rule:nonzero;stroke:none"
         id="path68" />
      <path
         d="m 209.102,523.785 c -0.196,4.047 -1.11,7.356 -2.743,9.938 -1.632,2.578 -3.679,4.203 -6.136,4.879 -2.516,0.687 -4.973,0.386 -7.364,-0.907 -2.394,-1.289 -4.73,-3.668 -7.015,-7.129 -1.574,-2.378 -3.883,-6.894 -6.918,-13.558 -3.035,-6.66 -5.328,-10.664 -6.879,-12.016 -1.524,-1.387 -3.121,-1.851 -4.777,-1.398 -1.926,0.531 -3.247,2.168 -3.957,4.91 -0.715,2.746 -0.36,6.711 1.062,11.898 1.367,4.985 3.16,8.539 5.379,10.672 2.226,2.133 4.887,3.004 7.992,2.633 l 1.75,8.481 c -2.793,0.601 -5.543,0.214 -8.262,-1.172 -2.711,-1.387 -5.132,-3.77 -7.265,-7.145 -2.133,-3.379 -3.86,-7.473 -5.18,-12.297 -1.203,-4.375 -1.758,-8.5 -1.672,-12.371 0.09,-3.875 0.899,-7.023 2.418,-9.441 1.528,-2.422 3.465,-3.953 5.813,-4.598 2.14,-0.59 4.281,-0.355 6.422,0.695 2.14,1.055 4.218,2.981 6.226,5.77 1.582,2.148 3.699,6.059 6.356,11.73 2.652,5.672 4.457,9.313 5.406,10.922 1.484,2.508 2.93,4.211 4.34,5.11 1.414,0.894 2.84,1.148 4.273,0.754 1.41,-0.383 2.563,-1.36 3.457,-2.922 0.895,-1.563 1.352,-3.692 1.371,-6.395 0.02,-2.707 -0.422,-5.695 -1.32,-8.973 -1.012,-3.687 -2.387,-6.878 -4.129,-9.578 -1.738,-2.695 -3.555,-4.539 -5.441,-5.523 -1.887,-0.992 -4.055,-1.359 -6.504,-1.098 l -1.703,-8.304 c 3.164,-0.743 6.289,-0.321 9.386,1.265 3.094,1.582 5.797,4.199 8.11,7.84 2.308,3.648 4.273,8.41 5.886,14.297 1.278,4.644 1.813,8.988 1.618,13.031"
         style="fill:#00244c;fill-opacity:1;fill-rule:nonzero;stroke:none"
         id="path70" />
      <path
         d="m 191.5,547.574 c 4.324,-1.597 8.785,-1.972 13.383,-1.117 4.597,0.856 8.68,3.07 12.25,6.648 3.57,3.575 6.625,8.801 9.168,15.676 2.457,6.645 3.234,12.746 2.332,18.305 -0.903,5.559 -3.496,10.141 -7.785,13.738 l -4.625,-7.894 c 3.336,-2.559 5.347,-5.828 6.043,-9.817 0.695,-3.992 0.168,-8.355 -1.586,-13.093 -1.442,-3.895 -3.477,-7.254 -6.11,-10.079 -2.629,-2.824 -5.66,-4.503 -9.082,-5.039 -3.422,-0.535 -7.027,-0.097 -10.816,1.305 -2.965,1.094 -5.582,2.824 -7.852,5.188 -2.269,2.363 -3.609,5.5 -4.023,9.41 -0.418,3.914 0.285,8.332 2.105,13.258 1.586,4.281 3.641,7.562 6.168,9.839 2.524,2.278 5.688,3.555 9.489,3.844 l 1.648,8.797 c -4.816,-0.164 -9.195,-2 -13.133,-5.492 -3.933,-3.492 -7.086,-8.438 -9.449,-14.821 -2.082,-5.636 -3.082,-11.132 -3,-16.492 0.082,-5.359 1.406,-9.961 3.973,-13.8 2.566,-3.836 6.199,-6.625 10.902,-8.364"
         style="fill:#00244c;fill-opacity:1;fill-rule:nonzero;stroke:none"
         id="path72" />
      <path
         d="m 241.59,608.551 -20.531,9.914 15.277,31.621 20.527,-9.914 3.918,8.109 -43.543,21.035 -3.918,-8.113 17.883,-8.637 -15.273,-31.621 -17.883,8.637 -3.918,-8.113 43.543,-21.031 3.918,8.113"
         style="fill:#00244c;fill-opacity:1;fill-rule:nonzero;stroke:none"
         id="path74" />
      <path
         d="m 243.895,704.508 c 2.378,3.828 5.191,6.863 8.441,9.109 3.254,2.242 6.602,3.399 10.043,3.473 3.445,0.074 6.82,-0.91 10.129,-2.961 5.215,-3.238 8.078,-7.606 8.586,-13.094 0.511,-5.488 -1.031,-11.125 -4.617,-16.906 -3.524,-5.676 -7.848,-9.527 -12.989,-11.551 -5.136,-2.023 -10.14,-1.523 -15.023,1.508 -6.094,3.781 -9.223,8.434 -9.387,13.965 -0.16,5.531 1.445,11.015 4.817,16.457 z m -0.329,-38.203 c 3.582,-2.223 7.672,-3.231 12.27,-3.024 4.598,0.207 9.152,1.879 13.672,5.016 4.512,3.133 8.457,7.422 11.836,12.867 3.117,5.024 5.179,10.227 6.183,15.613 1.008,5.383 0.61,10.274 -1.183,14.668 -1.797,4.395 -4.778,7.879 -8.934,10.457 -4.097,2.547 -8.465,3.696 -13.086,3.45 -4.625,-0.247 -9.168,-1.95 -13.633,-5.118 -4.461,-3.168 -8.347,-7.421 -11.66,-12.761 -5.058,-8.153 -7.265,-15.996 -6.625,-23.535 0.645,-7.543 4.364,-13.418 11.16,-17.633"
         style="fill:#00244c;fill-opacity:1;fill-rule:nonzero;stroke:none"
         id="path76" />
      <path
         d="m 284.617,763.887 c 2.715,3.593 5.797,6.363 9.238,8.301 3.442,1.933 6.883,2.781 10.321,2.542 3.433,-0.242 6.707,-1.531 9.808,-3.875 4.903,-3.699 7.352,-8.308 7.36,-13.82 0.008,-5.512 -2.043,-10.984 -6.141,-16.414 -4.027,-5.336 -8.687,-8.773 -13.988,-10.316 -5.301,-1.551 -10.242,-0.594 -14.824,2.871 -5.723,4.32 -8.414,9.242 -8.071,14.765 0.34,5.524 2.442,10.836 6.297,15.946 z m -3.816,-38.012 c 3.363,-2.539 7.344,-3.922 11.941,-4.133 4.598,-0.215 9.289,1.035 14.071,3.746 4.781,2.711 9.105,6.621 12.964,11.735 3.563,4.718 6.09,9.711 7.586,14.98 1.492,5.27 1.543,10.176 0.157,14.715 -1.391,4.543 -4.036,8.285 -7.942,11.234 -3.848,2.907 -8.09,4.45 -12.715,4.629 -4.629,0.176 -9.304,-1.105 -14.043,-3.855 -4.73,-2.746 -8.992,-6.625 -12.777,-11.641 -5.785,-7.656 -8.695,-15.269 -8.742,-22.836 -0.051,-7.566 3.117,-13.754 9.5,-18.574"
         style="fill:#00244c;fill-opacity:1;fill-rule:nonzero;stroke:none"
         id="path78" />
      <path
         d="m 371.008,799.496 -4.266,3.781 -22.211,-25.023 -31.902,28.312 -5.981,-6.738 36.165,-32.098 28.195,31.766"
         style="fill:#00244c;fill-opacity:1;fill-rule:nonzero;stroke:none"
         id="path80" />
      <path
         d="m 595.023,785.656 -20.757,-40.449 4.82,-6.344 44.199,8.696 -32.203,-24.481 5.234,-6.879 38.497,29.262 -7.145,9.402 -36.762,-7.297 c -3.707,-0.738 -6.5,-1.328 -8.371,-1.769 0.84,1.496 2.074,3.801 3.707,6.914 l 17.508,33.613 -8.105,10.66 -38.497,-29.261 5.231,-6.879 32.644,24.812"
         style="fill:#00244c;fill-opacity:1;fill-rule:nonzero;stroke:none"
         id="path82" />
      <path
         d="m 606.828,699.504 40.215,26.855 -5,7.493 -40.215,-26.856 5,-7.492"
         style="fill:#00244c;fill-opacity:1;fill-rule:nonzero;stroke:none"
         id="path84" />
      <path
         d="m 617.34,683.586 32.762,19.258 -14.618,-50.121 4.688,-7.969 41.683,24.504 -4.378,7.453 -32.758,-19.262 14.617,50.125 -4.688,7.969 -41.683,-24.508 4.375,-7.449"
         style="fill:#00244c;fill-opacity:1;fill-rule:nonzero;stroke:none"
         id="path86" />
      <path
         d="m 664.152,593.074 5.184,2.379 -16.496,35.922 15.035,6.906 14.887,-32.414 5.179,2.379 -14.886,32.414 13.449,6.18 15.887,-34.59 5.175,2.379 -19.449,42.355 -44.027,-20.218 20.062,-43.692"
         style="fill:#00244c;fill-opacity:1;fill-rule:nonzero;stroke:none"
         id="path88" />
      <path
         d="m 700.234,599.094 c -2.093,-0.739 -3.718,-2.153 -4.875,-4.239 -1.156,-2.085 -1.765,-4.851 -1.82,-8.292 -0.074,-2.665 0.418,-7.083 1.477,-13.258 1.058,-6.172 1.66,-10.188 1.8,-12.051 0.207,-2.906 -0.007,-5.133 -0.652,-6.676 -0.644,-1.543 -1.672,-2.562 -3.078,-3.062 -1.375,-0.485 -2.875,-0.344 -4.504,0.429 -1.625,0.774 -3.223,2.262 -4.777,4.473 -1.559,2.211 -2.903,4.918 -4.035,8.117 -1.278,3.61 -1.969,7.012 -2.079,10.219 -0.113,3.207 0.329,5.758 1.313,7.648 0.984,1.887 2.555,3.43 4.711,4.614 l -3.336,7.789 c -3.024,-1.196 -5.352,-3.332 -6.984,-6.399 -1.641,-3.066 -2.368,-6.754 -2.184,-11.066 0.184,-4.313 1.289,-9.348 3.324,-15.102 1.606,-4.539 3.641,-8.41 6.113,-11.621 2.469,-3.211 5.11,-5.406 7.922,-6.594 2.813,-1.183 5.422,-1.351 7.825,-0.5 2.457,0.872 4.304,2.52 5.531,4.942 1.226,2.43 1.789,5.715 1.691,9.859 -0.066,2.856 -0.754,7.883 -2.062,15.082 -1.309,7.203 -1.711,11.801 -1.207,13.793 0.457,2.012 1.5,3.305 3.121,3.875 1.886,0.664 3.898,0.074 6.054,-1.773 2.153,-1.848 4.125,-5.305 5.918,-10.375 1.719,-4.871 2.278,-8.817 1.672,-11.832 -0.609,-3.02 -2.293,-5.258 -5.058,-6.723 l 3.398,-7.965 c 2.645,1.098 4.68,2.992 6.121,5.68 1.434,2.687 2.063,6.027 1.887,10.012 -0.176,3.992 -1.098,8.34 -2.762,13.054 -1.515,4.278 -3.41,7.981 -5.695,11.11 -2.285,3.133 -4.742,5.258 -7.375,6.375 -2.637,1.121 -5.102,1.269 -7.395,0.457"
         style="fill:#00244c;fill-opacity:1;fill-rule:nonzero;stroke:none"
         id="path90" />
      <path
         d="m 220.73,376.457 c 2.274,2.383 5.305,3.859 9.11,4.434 3.797,0.574 8.105,0.047 12.922,-1.586 4.187,-1.418 7.41,-3.356 9.664,-5.793 2.254,-2.438 3.547,-5.563 3.875,-9.367 l 8.656,-1.387 c -0.23,4.851 -2.082,9.176 -5.559,12.984 -3.476,3.805 -8.347,6.77 -14.613,8.895 -5.531,1.875 -10.914,2.664 -16.144,2.367 -5.235,-0.301 -9.703,-1.805 -13.403,-4.52 -3.699,-2.714 -6.359,-6.472 -7.988,-11.265 -1.48,-4.367 -1.77,-8.84 -0.855,-13.426 0.906,-4.578 3.132,-8.59 6.679,-12.039 3.547,-3.445 8.696,-6.313 15.449,-8.606 6.52,-2.21 12.485,-2.761 17.899,-1.652 5.406,1.109 9.836,3.891 13.277,8.324 l -7.844,4.352 c -2.429,-3.434 -5.585,-5.582 -9.46,-6.442 -3.879,-0.867 -8.133,-0.507 -12.77,1.063 -3.812,1.293 -7.109,3.211 -9.895,5.754 -2.785,2.539 -4.464,5.512 -5.039,8.918 -0.574,3.402 -0.203,7.043 1.114,10.918 1.019,3.008 2.66,5.699 4.925,8.074"
         style="fill:#00244c;fill-opacity:1;fill-rule:nonzero;stroke:none"
         id="path92" />
      <path
         d="m 319.555,338.406 c -1.422,-6.035 -4.602,-10.199 -9.532,-12.496 -4.933,-2.301 -10.621,-2.687 -17.062,-1.172 -6.324,1.489 -11.199,4.352 -14.625,8.586 -3.426,4.235 -4.477,9.164 -3.148,14.793 1.66,7.047 5.023,11.555 10.097,13.531 5.074,1.973 10.641,2.25 16.703,0.821 4.262,-1.004 7.922,-2.688 10.985,-5.055 3.054,-2.367 5.14,-5.184 6.25,-8.441 1.109,-3.262 1.222,-6.785 0.332,-10.567 z m -0.918,22.723 c -4.301,3.195 -9.43,5.496 -15.391,6.898 -9.101,2.145 -17.051,1.676 -23.848,-1.402 -6.796,-3.074 -11.121,-8.535 -12.968,-16.379 -0.977,-4.144 -0.668,-8.363 0.925,-12.66 1.59,-4.305 4.524,-8.086 8.805,-11.356 4.281,-3.269 9.461,-5.621 15.539,-7.05 5.61,-1.317 11.063,-1.582 16.364,-0.782 5.3,0.797 9.718,2.778 13.253,5.95 3.536,3.172 5.868,7.144 6.993,11.929 1.113,4.723 0.851,9.246 -0.782,13.571 -1.632,4.32 -4.593,8.086 -8.89,11.281"
         style="fill:#00244c;fill-opacity:1;fill-rule:nonzero;stroke:none"
         id="path94" />
      <path
         d="m 347.855,358.313 -8.73,1.285 -7.109,-48.203 40.929,-6.032 0.832,5.637 -32.199,4.746 6.277,42.567"
         style="fill:#00244c;fill-opacity:1;fill-rule:nonzero;stroke:none"
         id="path96" />
      <path
         d="m 427.246,311.574 c -4.461,-3.117 -9.992,-4.484 -16.598,-4.101 -6.488,0.371 -11.785,2.343 -15.89,5.925 -4.11,3.575 -5.996,8.25 -5.664,14.028 0.418,7.226 2.953,12.246 7.609,15.07 4.656,2.82 10.09,4.055 16.309,3.699 4.371,-0.25 8.265,-1.281 11.691,-3.082 3.422,-1.8 5.961,-4.215 7.617,-7.23 1.657,-3.024 2.375,-6.477 2.157,-10.352 -0.36,-6.187 -2.77,-10.84 -7.231,-13.957 z m 2.395,36.176 c -4.789,2.406 -10.239,3.789 -16.352,4.137 -9.336,0.535 -17.082,-1.301 -23.246,-5.504 -6.164,-4.211 -9.477,-10.336 -9.941,-18.379 -0.243,-4.25 0.789,-8.352 3.101,-12.313 2.313,-3.961 5.856,-7.175 10.641,-9.656 4.777,-2.48 10.285,-3.898 16.523,-4.258 5.75,-0.332 11.168,0.356 16.25,2.059 5.082,1.703 9.09,4.418 12.024,8.152 2.933,3.735 4.543,8.055 4.824,12.961 0.277,4.844 -0.762,9.254 -3.113,13.235 -2.36,3.972 -5.926,7.164 -10.711,9.566"
         style="fill:#00244c;fill-opacity:1;fill-rule:nonzero;stroke:none"
         id="path98" />
      <path
         d="m 548.297,328.52 -22.524,-2.922 5.547,15.277 c 1.063,3.266 1.852,6.488 2.368,9.668 1.347,-2.441 3.359,-5.539 6.035,-9.285 z m -69.469,1.039 -18.64,-0.801 -0.692,15.98 20.742,0.895 c 4.84,0.207 8.41,-0.379 10.711,-1.762 2.305,-1.379 3.504,-3.199 3.602,-5.469 0.07,-1.586 -0.446,-3.062 -1.543,-4.441 -1.098,-1.379 -2.746,-2.414 -4.942,-3.106 -2.195,-0.691 -5.277,-1.125 -9.238,-1.296 z m 49.625,25.5 -18.629,-50.879 -11.324,12.097 c -2.379,2.539 -4.871,4.61 -7.484,6.215 -1.235,0.758 -3.012,1.496 -5.348,2.211 6.258,0.899 10.844,2.598 13.75,5.098 2.906,2.5 4.285,5.472 4.137,8.922 -0.114,2.672 -1.129,5.07 -3.039,7.195 -1.914,2.125 -4.411,3.559 -7.485,4.297 -3.078,0.734 -7.539,0.98 -13.383,0.726 l -29.199,-1.257 2.102,-48.68 8.816,0.383 -0.933,21.676 10.054,0.433 c 2.239,0.094 3.848,0.09 4.84,-0.019 1.348,-0.184 2.692,-0.563 4.031,-1.137 1.344,-0.578 2.864,-1.606 4.571,-3.086 1.707,-1.488 3.875,-3.637 6.504,-6.453 l 9.113,-9.77 10.914,0.473 -0.074,0.078 8.394,1.09 5.239,15.508 27.492,3.566 9.39,-13.613 9.871,1.277 -32.871,44.871 -9.449,-1.222"
         style="fill:#00244c;fill-opacity:1;fill-rule:nonzero;stroke:none"
         id="path100" />
      <path
         d="m 615.84,336.91 c -0.574,-2.769 -1.703,-5.125 -3.399,-7.066 -1.199,-1.375 -2.945,-2.621 -5.23,-3.742 -2.285,-1.118 -5.555,-2.145 -9.797,-3.075 l -13.742,-3.011 -7.992,36.457 13.523,2.965 c 5.067,1.113 8.809,1.589 11.235,1.445 3.359,-0.223 6.441,-1.43 9.238,-3.625 2.801,-2.199 4.75,-5.801 5.847,-10.809 0.786,-3.594 0.895,-6.773 0.317,-9.539 z m 3.484,22.16 c -2.41,2.922 -5.547,5.071 -9.414,6.446 -2.972,1.07 -6.379,1.527 -10.215,1.363 -2.738,-0.137 -6.613,-0.758 -11.632,-1.856 l -22.223,-4.871 10.43,-47.593 23.281,5.101 c 3.898,0.856 7.297,1.875 10.187,3.067 2.895,1.187 5.289,2.543 7.184,4.074 1.894,1.519 3.539,3.39 4.93,5.605 1.39,2.219 2.351,4.844 2.882,7.895 0.532,3.043 0.399,6.371 -0.39,9.988 -0.938,4.266 -2.61,7.856 -5.02,10.781"
         style="fill:#00244c;fill-opacity:1;fill-rule:nonzero;stroke:none"
         id="path102" />
      <path
         d="m 679.867,350.516 c -3.019,-4.524 -7.676,-7.809 -13.969,-9.86 -6.175,-2.011 -11.828,-2.101 -16.957,-0.261 -5.125,1.835 -8.586,5.503 -10.378,11.003 -2.243,6.883 -1.708,12.485 1.605,16.809 3.309,4.32 7.922,7.449 13.844,9.379 4.16,1.355 8.164,1.816 12.011,1.383 3.84,-0.434 7.082,-1.75 9.727,-3.961 2.641,-2.211 4.566,-5.164 5.77,-8.856 1.921,-5.894 1.371,-11.105 -1.653,-15.636 z m 2.524,29.554 c -3.641,2.844 -8.125,4.52 -13.457,5.016 -5.336,0.5 -10.914,-0.199 -16.735,-2.098 -8.89,-2.894 -15.441,-7.425 -19.648,-13.586 -4.211,-6.164 -5.071,-13.078 -2.574,-20.738 1.32,-4.043 3.777,-7.488 7.367,-10.336 3.594,-2.848 8.066,-4.558 13.426,-5.125 5.355,-0.57 11,0.113 16.937,2.047 5.481,1.789 10.277,4.398 14.387,7.832 4.117,3.438 6.859,7.426 8.234,11.973 1.375,4.543 1.305,9.152 -0.223,13.824 -1.5,4.613 -4.074,8.344 -7.714,11.191"
         style="fill:#00244c;fill-opacity:1;fill-rule:nonzero;stroke:none"
         id="path104" />
      <path
         d="m 418.77,885.555 c 3.378,2.422 7.41,3.633 12.097,3.633 3.301,0 6.274,-0.629 8.926,-1.883 2.652,-1.258 4.664,-3.035 6.043,-5.336 1.375,-2.297 2.062,-4.977 2.062,-8.039 0,-4.871 -1.609,-8.633 -4.828,-11.285 -3.218,-2.653 -7.324,-3.977 -12.304,-3.977 -4.895,0 -8.957,1.312 -12.203,3.941 -3.243,2.629 -4.864,6.219 -4.864,10.77 0,5.691 1.692,9.75 5.071,12.176 z m -0.633,-28.547 c 3.718,-1.711 7.937,-2.57 12.66,-2.57 4.359,0 8.422,0.777 12.187,2.332 3.766,1.554 6.672,3.835 8.731,6.851 2.051,3.02 3.082,6.445 3.082,10.285 0,3.77 -0.981,7.145 -2.93,10.125 -1.949,2.985 -4.785,5.309 -8.504,6.977 -3.722,1.668 -7.898,2.504 -12.527,2.504 -7.078,0 -12.852,-1.778 -17.32,-5.332 -4.473,-3.551 -6.707,-8.461 -6.707,-14.719 0,-3.313 0.957,-6.457 2.871,-9.426 1.918,-2.972 4.734,-5.312 8.457,-7.027"
         style="fill:#00244c;fill-opacity:1;fill-rule:nonzero;stroke:none"
         id="path106" />
      <path
         d="m 466.688,872.273 h 23.625 v 4.415 h -23.625 v 11.765 h 27.304 v 4.414 H 460.07 v -37.785 h 6.618 v 17.191"
         style="fill:#00244c;fill-opacity:1;fill-rule:nonzero;stroke:none"
         id="path108" />
      <path
         d="M 447.809,935.551 C 468.816,923.402 605.57,840.324 684.867,694.254 767.113,542.754 772.598,394.395 772.934,371.086 752.156,358.91 614.57,282.328 448.559,286.094 276.344,290 144.297,359.773 123.656,371.281 c 0.332,23.555 5.782,171.649 87.93,322.973 79.285,146.055 215.301,229.129 236.223,241.297 z M 702.516,703.832 C 613.969,866.941 456.16,953.941 454.578,954.801 l -2.82,1.527 -3.977,2.16 -3.972,-2.172 -2.813,-1.531 C 439.426,953.922 282.488,866.945 193.938,703.832 102.301,535.027 103.535,369.32 103.559,367.672 l 0.046,-3.297 0.067,-4.645 3.988,-2.378 2.828,-1.684 c 1.43,-0.852 145.258,-85.285 337.617,-89.648 4.106,-0.094 8.219,-0.137 12.29,-0.137 179.398,0 324.503,88.926 325.949,89.82 l 2.742,1.715 3.848,2.402 0.058,4.535 0.043,3.208 c 0.024,1.667 0.977,167.726 -90.519,336.269"
         style="fill:#00244c;fill-opacity:1;fill-rule:nonzero;stroke:none"
         id="path110" />
      <path
         d="m 3044.64,731.32 0.01,-35.511 c 0,-4.274 2,-8.297 5.4,-10.883 l 26.38,-20.031 c 2.37,-1.805 5.27,-2.786 8.26,-2.786 l 136.99,-0.113 c 21.59,0.067 31.89,-5.851 41.07,-13.832 l 54.4,-51.676 c 18.26,-16.75 20.09,-20.918 20.09,-47.562 l -0.4,-99.242 c 0,0 0.4,-29.008 -16.02,-42.84 l -60.95,-53.602 c 0,0 -18.35,-11.656 -35.26,-11.656 h -287.13 l -26.64,123.32 71.55,-15.222 h 187.59 c 2.98,0 5.87,0.968 8.25,2.761 L 3207,473.82 c 3.43,2.586 5.44,6.625 5.44,10.914 v 34.403 c 0,4.285 -2.01,8.324 -5.43,10.906 l -26.49,20.031 c -2.38,1.793 -5.27,2.766 -8.25,2.766 l -137.01,0.012 c -28.17,0 -36.65,9.464 -50.31,23.121 l -45.16,43.711 c -18.27,16.75 -20.09,20.918 -20.09,47.566 l 0.38,98.328 c 0,26.649 1.82,30.817 20.09,47.567 l 42.63,37.296 c 16.75,14.465 24.67,24.012 52.84,24.012 h 268 l 18.21,-123.32 -57.09,15.426 h -179.94 c -2.99,0 -5.9,-2.414 -8.27,-4.219 l -26.51,-20.121 c -3.4,-2.59 -5.4,-6.621 -5.4,-10.899"
         style="fill:#00244c;fill-opacity:1;fill-rule:nonzero;stroke:none"
         id="path112" />
      <path
         d="m 1558.92,402.48 13.7,-60.894 h -162.14 l 14.46,60.894 V 673.484 L 1281.07,448.918 h -25.89 L 1111.31,673.484 V 402.48 l 14.46,-60.894 H 963.633 l 13.699,60.894 v 411.071 l -13.699,60.902 h 161.377 l 143.12,-238.265 143.11,238.265 h 161.38 l -13.7,-60.902 V 402.48"
         style="fill:#00244c;fill-opacity:1;fill-rule:nonzero;stroke:none"
         id="path114" />
      <path
         d="m 1653.33,402.48 v 411.071 l -14.47,60.902 h 165.19 l -14.46,-60.902 V 402.48 l 14.46,-60.894 h -165.19 l 14.47,60.894"
         style="fill:#00244c;fill-opacity:1;fill-rule:nonzero;stroke:none"
         id="path116" />
      <path
         d="m 1883.02,402.48 v 411.071 l -13.7,60.902 h 118.76 l 242.83,-310.59 v 249.688 l -14.46,60.902 h 165.19 l -13.71,-60.902 V 341.586 H 2262.12 L 2020.05,650.648 V 402.48 l 14.46,-60.894 h -165.19 l 13.7,60.894"
         style="fill:#00244c;fill-opacity:1;fill-rule:nonzero;stroke:none"
         id="path118" />
      <path
         d="m 2875.69,464.906 -30.44,-123.32 h -397.37 l 13.7,60.894 v 411.071 l -13.7,60.902 h 383.66 l 22.84,-123.32 -57.09,15.222 H 2598.6 V 660.547 h 168.24 l 41.87,9.894 V 548.637 l -41.87,9.898 H 2598.6 V 449.684 h 205.54 l 71.55,15.222"
         style="fill:#00244c;fill-opacity:1;fill-rule:nonzero;stroke:none"
         id="path120" />
      <path
         d="m 3380.77,345.133 c -6.66,0 -12.08,5.422 -12.08,12.086 0,6.664 5.42,12.086 12.08,12.086 6.67,0 12.09,-5.422 12.09,-12.086 0,-6.664 -5.42,-12.086 -12.09,-12.086 z m 0,25.996 c -7.67,0 -13.91,-6.242 -13.91,-13.91 0,-7.672 6.24,-13.914 13.91,-13.914 7.67,0 13.91,6.242 13.91,13.914 0,7.668 -6.24,13.91 -13.91,13.91"
         style="fill:#00244c;fill-opacity:1;fill-rule:nonzero;stroke:none"
         id="path122" />
      <path
         d="m 3378.11,361.91 v -4.43 h 3.98 c 1.66,0 2.37,1.11 2.37,2.215 0,1.106 -0.73,2.215 -2.37,2.215 z m 9.65,-11.406 h -3.11 l -4.03,4.625 h -2.51 v -4.625 h -2.61 v 13.855 c 2.2,0 4.39,-0.019 6.59,-0.019 3.26,-0.02 4.98,-2.195 4.98,-4.586 0,-1.899 -0.87,-3.816 -3.5,-4.348 l 4.19,-4.726 v -0.176"
         style="fill:#00244c;fill-opacity:1;fill-rule:nonzero;stroke:none"
         id="path124" />
    </g>
  </g>
</svg>
